<?xml version="1.0" encoding="utf-8"?>
<!-- Generator: Adobe Illustrator 27.4.0, SVG Export Plug-In . SVG Version: 6.00 Build 0)  -->
<svg version="1.1" id="圖層_1" xmlns="http://www.w3.org/2000/svg" xmlns:xlink="http://www.w3.org/1999/xlink" x="0px" y="0px"
	 viewBox="0 0 100 80" style="enable-background:new 0 0 100 80;" xml:space="preserve">
<style type="text/css">
	.st0{fill:#FFFFFF;}
</style>
<path id="Path_170" class="st0" d="M32.5,0C50.5,0,65,12.3,65,27.5S50.5,55,32.5,55c-2.8,0-5.7-0.3-8.5-1c-6,3.8-13,5.9-20.1,6
	c-1.6,0-3-0.9-3.6-2.4c-0.6-1.4-0.3-3.1,0.7-4.2c2.4-2.7,4.4-5.6,6.1-8.8C2.6,40.1,0.1,33.9,0,27.5C0,12.3,14.6,0,32.5,0z
	 M25.7,46.6c2.2,0.6,4.5,0.9,6.8,0.9c13.8,0,25-9,25-20s-11.2-20-25-20s-25,9-25,20c0.1,4.5,1.9,8.8,5.1,12l3.7,3.9l-2.5,4.7
	c-0.6,0.9-1.2,2.2-1.8,3.2c2.9-0.8,5.6-2.1,8.1-3.8l2.6-1.5L25.7,46.6z M69,20c17.2,0.7,31,12.7,31,27.5c-0.1,6.4-2.6,12.6-7.1,17.2
	c1.7,3.2,3.7,6.1,6.1,8.8c1.1,1.1,1.3,2.8,0.6,4.2C99,79.1,97.6,80,96.1,80C89,79.9,82,77.9,76,74c-2.8,0.6-5.6,1-8.5,1
	c-12.8,0-23.9-6.3-29.2-15.4c2.6-0.3,5.2-1,7.8-1.8c4.4,5.8,12.3,9.7,21.4,9.7c2.3,0,4.6-0.3,6.8-0.9l3-0.5l2.6,1.5
	c2.5,1.7,5.3,3,8.2,3.8c-0.7-1-1.3-2.2-1.8-3.2l-2.5-4.7l3.7-3.9c3.2-3.2,5-7.5,5.1-12c0-10.4-9.9-18.9-22.6-19.9l0.1-0.1
	C70,25,69.7,22.5,69,20z"/>
<text transform="matrix(1 0 0 1 -4 101.2075)" style="font-family:'MingLiU'; font-size:9px;">https://fontawesome.com/</text>
</svg>
