<?xml version="1.0" encoding="utf-8"?>
<!-- Generator: Adobe Illustrator 27.4.0, SVG Export Plug-In . SVG Version: 6.00 Build 0)  -->
<svg version="1.1" id="圖層_1" xmlns="http://www.w3.org/2000/svg" xmlns:xlink="http://www.w3.org/1999/xlink" x="0px" y="0px"
	 viewBox="0 0 100 80" style="enable-background:new 0 0 100 80;" xml:space="preserve">
<style type="text/css">
	.st0{fill:#FFFFFF;}
</style>
<path id="Path_172" class="st0" d="M25,10c0-5.5,4.5-10,10-10h55c5.5,0,10,4.5,10,10v45c0,5.5-4.5,10-10,10H52.6
	c-1.8-4-4.7-7.4-8.2-10H60v-5c0-2.8,2.2-5,5-5h10c2.8,0,5,2.2,5,5v5h10V10H35v7.7c-3-1.8-6.5-2.7-10-2.7V10z M25,50
	c-8.3,0-15-6.7-15-15s6.7-15,15-15s15,6.7,15,15S33.3,50,25,50z M20.8,55h8.3C40.7,55,50,64.3,50,75.8c0,0,0,0,0,0
	c0,2.3-1.9,4.2-4.2,4.2c0,0,0,0,0,0H4.2C1.9,80,0,78.1,0,75.9c0,0,0,0,0,0C0,64.3,9.3,55,20.8,55z"/>
<text transform="matrix(1 0 0 1 -4 103.2075)" style="font-family:'MingLiU'; font-size:9px;">https://fontawesome.com/</text>
</svg>
