<?xml version="1.0" encoding="utf-8"?>
<!-- Generator: Adobe Illustrator 27.4.0, SVG Export Plug-In . SVG Version: 6.00 Build 0)  -->
<svg version="1.1" id="圖層_1" xmlns="http://www.w3.org/2000/svg" xmlns:xlink="http://www.w3.org/1999/xlink" x="0px" y="0px"
	 viewBox="0 0 100 100" style="enable-background:new 0 0 100 100;" xml:space="preserve">
<style type="text/css">
	.st0{fill:#FFFFFF;}
</style>
<path id="Path_169" class="st0" d="M50,9.4C27.6,9.4,9.4,27.6,9.4,50c0,0,0,0,0,0v7.8c0,2.6-2.2,4.7-4.8,4.6c-2.5,0-4.6-2.1-4.6-4.6
	V50C0,22.4,22.4,0,50,0s50,22.4,50,50v28.1c0,9.5-7.7,17.2-17.2,17.2c0,0,0,0,0,0l-21.5,0c-1.7,2.9-4.8,4.7-8.1,4.7h-6.2
	c-5.2,0-9.4-4.2-9.4-9.4s4.2-9.4,9.4-9.4h6.2c3.4,0,6.4,1.8,8.1,4.7l21.6,0c4.3,0,7.8-3.5,7.8-7.8c0,0,0,0,0,0V50
	C90.6,27.6,72.4,9.4,50,9.4C50,9.4,50,9.4,50,9.4z M28.1,40.6h3.1c3.4,0,6.2,2.8,6.2,6.2c0,0,0,0,0,0v21.9c0,3.4-2.8,6.2-6.2,6.2
	c0,0,0,0,0,0h-3.1c-6.9,0-12.5-5.6-12.5-12.5v-9.4C15.6,46.2,21.2,40.6,28.1,40.6z M71.9,40.6c6.9,0,12.5,5.6,12.5,12.5v9.4
	c0,6.9-5.6,12.5-12.5,12.5h-3.1c-3.4,0-6.2-2.8-6.2-6.2c0,0,0,0,0,0V46.9c0-3.4,2.8-6.2,6.2-6.2c0,0,0,0,0,0H71.9z"/>
<text transform="matrix(1 0 0 1 -4 121.2075)" style="font-family:'MingLiU'; font-size:9px;">https://fontawesome.com/</text>
</svg>
