<?xml version="1.0" encoding="UTF-8"?>
<svg id="_圖層_1" xmlns="http://www.w3.org/2000/svg" version="1.1" viewBox="0 0 640 512">
  <!-- Generator: Adobe Illustrator 30.1.0, SVG Export Plug-In . SVG Version: 2.1.1 Build 136)  -->
  <defs>
    <style>
      .st0 {
        fill: #fff;
      }
    </style>
  </defs>
  <path class="st0" d="M412.6,181.5c21.5,17.6,35.4,44.4,35.4,74.5s-13.9,56.9-35.4,74.5c-10.3,8.4-25.4,6.8-33.8-3.5s-6.8-25.4,3.5-33.8c10.8-8.8,17.7-22.2,17.7-37.2s-6.9-28.4-17.7-37.3c-10.3-8.4-11.8-23.5-3.5-33.8s23.5-11.8,33.8-3.5h0ZM301.1,34.8c11.5,5.2,18.9,16.6,18.9,29.2v384c0,12.6-7.4,24-18.9,29.2s-25,3.1-34.4-5.3l-134.9-119.9h-67.8C28.7,352,0,323.3,0,288v-64C0,188.7,28.7,160,64,160h67.8l134.9-119.9c9.4-8.4,22.9-10.4,34.4-5.3h0Z"/>
</svg>