<?xml version="1.0" encoding="UTF-8"?>
<svg xmlns="http://www.w3.org/2000/svg" version="1.1" xmlns:xlink="http://www.w3.org/1999/xlink" viewBox="0 0 146.6 49.3">
  <defs>
    <style>
      .cls-1 {
        fill: url(#_未命名漸層_23);
      }

      .cls-2 {
        fill: url(#_未命名漸層_37);
      }

      .cls-3 {
        fill: url(#_未命名漸層_34);
      }

      .cls-4 {
        fill: url(#_未命名漸層_12);
      }

      .cls-5 {
        fill: url(#_未命名漸層_9);
      }

      .cls-6 {
        fill: url(#_未命名漸層_11);
      }

      .cls-7 {
        fill: url(#_未命名漸層_7);
      }

      .cls-8 {
        fill: url(#_未命名漸層_25);
      }

      .cls-9 {
        fill: url(#_未命名漸層_6);
      }

      .cls-10 {
        fill: url(#_未命名漸層_20);
      }

      .cls-11 {
        fill: url(#_未命名漸層_21);
      }

      .cls-12 {
        fill: url(#_未命名漸層_31);
      }

      .cls-13 {
        fill: url(#_未命名漸層);
      }

      .cls-14 {
        fill: url(#_未命名漸層_26);
      }

      .cls-15 {
        fill: url(#_未命名漸層_2);
      }

      .cls-16 {
        fill: url(#_未命名漸層_8);
      }

      .cls-17 {
        fill: url(#_未命名漸層_15);
      }

      .cls-18 {
        font-family: AdobeMingStd-Light-B5pc-H, 'Adobe Ming Std';
        font-size: 12px;
        font-weight: 300;
      }

      .cls-19 {
        fill: url(#_未命名漸層_18);
      }

      .cls-20 {
        fill: url(#_未命名漸層_32);
      }

      .cls-21 {
        fill: url(#_未命名漸層_33);
      }

      .cls-22 {
        fill: url(#_未命名漸層_19);
      }

      .cls-23 {
        fill: #4f076d;
      }

      .cls-24 {
        fill: url(#_未命名漸層_35);
      }

      .cls-25 {
        fill: url(#_未命名漸層_14);
      }

      .cls-26 {
        fill: url(#_未命名漸層_5);
      }

      .cls-27 {
        fill: url(#_未命名漸層_36);
      }

      .cls-28 {
        fill: url(#_未命名漸層_3);
      }

      .cls-29 {
        fill: url(#_未命名漸層_29);
      }

      .cls-30 {
        fill: url(#_未命名漸層_24);
      }

      .cls-31 {
        fill: url(#_未命名漸層_17);
      }

      .cls-32 {
        fill: url(#_未命名漸層_28);
      }

      .cls-33 {
        fill: url(#_未命名漸層_30);
      }

      .cls-34 {
        fill: url(#_未命名漸層_13);
      }

      .cls-35 {
        fill: url(#_未命名漸層_22);
      }

      .cls-36 {
        fill: url(#_未命名漸層_10);
      }

      .cls-37 {
        fill: url(#_未命名漸層_27);
      }

      .cls-38 {
        fill: url(#_未命名漸層_4);
      }

      .cls-39 {
        fill: url(#_未命名漸層_16);
      }
    </style>
    <linearGradient id="_未命名漸層" data-name="未命名漸層" x1="4211.3" y1="-306.5" x2="4211.3" y2="-261.6" gradientTransform="translate(4248.3 306.2) rotate(-180) scale(1 -1)" gradientUnits="userSpaceOnUse">
      <stop offset=".3" stop-color="#fccd2b"/>
      <stop offset=".7" stop-color="#00aaea"/>
      <stop offset="1" stop-color="#3a499c"/>
    </linearGradient>
    <linearGradient id="_未命名漸層_2" data-name="未命名漸層 2" x1="4211.7" y1="-306.5" x2="4211.7" y2="-261.6" gradientTransform="translate(4248.3 306.2) rotate(-180) scale(1 -1)" gradientUnits="userSpaceOnUse">
      <stop offset=".3" stop-color="#fccd2b"/>
      <stop offset=".7" stop-color="#00aaea"/>
      <stop offset="1" stop-color="#3a499c"/>
    </linearGradient>
    <linearGradient id="_未命名漸層_3" data-name="未命名漸層 3" x1="4212.5" y1="-306.5" x2="4212.5" y2="-261.6" gradientTransform="translate(4248.3 306.2) rotate(-180) scale(1 -1)" gradientUnits="userSpaceOnUse">
      <stop offset=".3" stop-color="#fccd2b"/>
      <stop offset=".7" stop-color="#00aaea"/>
      <stop offset="1" stop-color="#3a499c"/>
    </linearGradient>
    <linearGradient id="_未命名漸層_4" data-name="未命名漸層 4" x1="4213.6" y1="-306.5" x2="4213.6" y2="-261.6" gradientTransform="translate(4248.3 306.2) rotate(-180) scale(1 -1)" gradientUnits="userSpaceOnUse">
      <stop offset=".3" stop-color="#fccd2b"/>
      <stop offset=".7" stop-color="#00aaea"/>
      <stop offset="1" stop-color="#3a499c"/>
    </linearGradient>
    <linearGradient id="_未命名漸層_5" data-name="未命名漸層 5" x1="4215" y1="-306.5" x2="4215" y2="-261.6" gradientTransform="translate(4248.3 306.2) rotate(-180) scale(1 -1)" gradientUnits="userSpaceOnUse">
      <stop offset=".3" stop-color="#fccd2b"/>
      <stop offset=".7" stop-color="#00aaea"/>
      <stop offset="1" stop-color="#3a499c"/>
    </linearGradient>
    <linearGradient id="_未命名漸層_6" data-name="未命名漸層 6" x1="4216.7" y1="-306.5" x2="4216.7" y2="-261.6" gradientTransform="translate(4248.3 306.2) rotate(-180) scale(1 -1)" gradientUnits="userSpaceOnUse">
      <stop offset=".3" stop-color="#fccd2b"/>
      <stop offset=".7" stop-color="#00aaea"/>
      <stop offset="1" stop-color="#3a499c"/>
    </linearGradient>
    <linearGradient id="_未命名漸層_7" data-name="未命名漸層 7" x1="4218.4" y1="-306.5" x2="4218.4" y2="-261.6" gradientTransform="translate(4248.3 306.2) rotate(-180) scale(1 -1)" gradientUnits="userSpaceOnUse">
      <stop offset=".3" stop-color="#fccd2b"/>
      <stop offset=".7" stop-color="#00aaea"/>
      <stop offset="1" stop-color="#3a499c"/>
    </linearGradient>
    <linearGradient id="_未命名漸層_8" data-name="未命名漸層 8" x1="4220.4" y1="-306.5" x2="4220.4" y2="-261.6" gradientTransform="translate(4248.3 306.2) rotate(-180) scale(1 -1)" gradientUnits="userSpaceOnUse">
      <stop offset=".3" stop-color="#fccd2b"/>
      <stop offset=".7" stop-color="#00aaea"/>
      <stop offset="1" stop-color="#3a499c"/>
    </linearGradient>
    <linearGradient id="_未命名漸層_9" data-name="未命名漸層 9" x1="4223.6" y1="-306.5" x2="4223.6" y2="-261.6" gradientTransform="translate(4248.3 306.2) rotate(-180) scale(1 -1)" gradientUnits="userSpaceOnUse">
      <stop offset=".3" stop-color="#fccd2b"/>
      <stop offset=".7" stop-color="#00aaea"/>
      <stop offset="1" stop-color="#3a499c"/>
    </linearGradient>
    <linearGradient id="_未命名漸層_10" data-name="未命名漸層 10" x1="4225.5" y1="-306.5" x2="4225.5" y2="-261.6" gradientTransform="translate(4248.3 306.2) rotate(-180) scale(1 -1)" gradientUnits="userSpaceOnUse">
      <stop offset=".3" stop-color="#fccd2b"/>
      <stop offset=".7" stop-color="#00aaea"/>
      <stop offset="1" stop-color="#3a499c"/>
    </linearGradient>
    <linearGradient id="_未命名漸層_11" data-name="未命名漸層 11" x1="4227.3" y1="-306.5" x2="4227.3" y2="-261.6" gradientTransform="translate(4248.3 306.2) rotate(-180) scale(1 -1)" gradientUnits="userSpaceOnUse">
      <stop offset=".3" stop-color="#fccd2b"/>
      <stop offset=".7" stop-color="#00aaea"/>
      <stop offset="1" stop-color="#3a499c"/>
    </linearGradient>
    <linearGradient id="_未命名漸層_12" data-name="未命名漸層 12" x1="4229" y1="-306.5" x2="4229" y2="-261.6" gradientTransform="translate(4248.3 306.2) rotate(-180) scale(1 -1)" gradientUnits="userSpaceOnUse">
      <stop offset=".3" stop-color="#fccd2b"/>
      <stop offset=".7" stop-color="#00aaea"/>
      <stop offset="1" stop-color="#3a499c"/>
    </linearGradient>
    <linearGradient id="_未命名漸層_13" data-name="未命名漸層 13" x1="4230.4" y1="-306.5" x2="4230.4" y2="-261.6" gradientTransform="translate(4248.3 306.2) rotate(-180) scale(1 -1)" gradientUnits="userSpaceOnUse">
      <stop offset=".3" stop-color="#fccd2b"/>
      <stop offset=".7" stop-color="#00aaea"/>
      <stop offset="1" stop-color="#3a499c"/>
    </linearGradient>
    <linearGradient id="_未命名漸層_14" data-name="未命名漸層 14" x1="4231.5" y1="-306.5" x2="4231.5" y2="-261.6" gradientTransform="translate(4248.3 306.2) rotate(-180) scale(1 -1)" gradientUnits="userSpaceOnUse">
      <stop offset=".3" stop-color="#fccd2b"/>
      <stop offset=".7" stop-color="#00aaea"/>
      <stop offset="1" stop-color="#3a499c"/>
    </linearGradient>
    <linearGradient id="_未命名漸層_15" data-name="未命名漸層 15" x1="4232.4" y1="-306.5" x2="4232.4" y2="-261.6" gradientTransform="translate(4248.3 306.2) rotate(-180) scale(1 -1)" gradientUnits="userSpaceOnUse">
      <stop offset=".3" stop-color="#fccd2b"/>
      <stop offset=".7" stop-color="#00aaea"/>
      <stop offset="1" stop-color="#3a499c"/>
    </linearGradient>
    <linearGradient id="_未命名漸層_16" data-name="未命名漸層 16" x1="4232.9" y1="-306.5" x2="4232.9" y2="-261.6" gradientTransform="translate(4248.3 306.2) rotate(-180) scale(1 -1)" gradientUnits="userSpaceOnUse">
      <stop offset=".3" stop-color="#fccd2b"/>
      <stop offset=".7" stop-color="#00aaea"/>
      <stop offset="1" stop-color="#3a499c"/>
    </linearGradient>
    <linearGradient id="_未命名漸層_17" data-name="未命名漸層 17" x1="4233.1" y1="-306.5" x2="4233.1" y2="-261.6" gradientTransform="translate(4248.3 306.2) rotate(-180) scale(1 -1)" gradientUnits="userSpaceOnUse">
      <stop offset=".3" stop-color="#fccd2b"/>
      <stop offset=".7" stop-color="#00aaea"/>
      <stop offset="1" stop-color="#3a499c"/>
    </linearGradient>
    <linearGradient id="_未命名漸層_18" data-name="未命名漸層 18" x1="4211.1" y1="-306.5" x2="4211.1" y2="-261.6" gradientTransform="translate(4248.3 306.2) rotate(-180) scale(1 -1)" gradientUnits="userSpaceOnUse">
      <stop offset=".3" stop-color="#fccd2b"/>
      <stop offset=".7" stop-color="#00aaea"/>
      <stop offset="1" stop-color="#3a499c"/>
    </linearGradient>
    <linearGradient id="_未命名漸層_19" data-name="未命名漸層 19" x1="4233.1" y1="-306.5" x2="4233.1" y2="-261.6" gradientTransform="translate(4248.3 306.2) rotate(-180) scale(1 -1)" gradientUnits="userSpaceOnUse">
      <stop offset=".3" stop-color="#fccd2b"/>
      <stop offset=".7" stop-color="#00aaea"/>
      <stop offset="1" stop-color="#3a499c"/>
    </linearGradient>
    <linearGradient id="_未命名漸層_20" data-name="未命名漸層 20" x1="4211.2" y1="-306.5" x2="4211.2" y2="-261.6" gradientTransform="translate(4248.3 306.2) rotate(-180) scale(1 -1)" gradientUnits="userSpaceOnUse">
      <stop offset=".3" stop-color="#fccd2b"/>
      <stop offset=".7" stop-color="#00aaea"/>
      <stop offset="1" stop-color="#3a499c"/>
    </linearGradient>
    <linearGradient id="_未命名漸層_21" data-name="未命名漸層 21" x1="4232.8" y1="-306.5" x2="4232.8" y2="-261.6" gradientTransform="translate(4248.3 306.2) rotate(-180) scale(1 -1)" gradientUnits="userSpaceOnUse">
      <stop offset=".3" stop-color="#fccd2b"/>
      <stop offset=".7" stop-color="#00aaea"/>
      <stop offset="1" stop-color="#3a499c"/>
    </linearGradient>
    <linearGradient id="_未命名漸層_22" data-name="未命名漸層 22" x1="4232.1" y1="-306.5" x2="4232.1" y2="-261.6" gradientTransform="translate(4248.3 306.2) rotate(-180) scale(1 -1)" gradientUnits="userSpaceOnUse">
      <stop offset=".3" stop-color="#fccd2b"/>
      <stop offset=".7" stop-color="#00aaea"/>
      <stop offset="1" stop-color="#3a499c"/>
    </linearGradient>
    <linearGradient id="_未命名漸層_23" data-name="未命名漸層 23" x1="4231.2" y1="-306.5" x2="4231.2" y2="-261.6" gradientTransform="translate(4248.3 306.2) rotate(-180) scale(1 -1)" gradientUnits="userSpaceOnUse">
      <stop offset=".3" stop-color="#fccd2b"/>
      <stop offset=".7" stop-color="#00aaea"/>
      <stop offset="1" stop-color="#3a499c"/>
    </linearGradient>
    <linearGradient id="_未命名漸層_24" data-name="未命名漸層 24" x1="4229.9" y1="-306.5" x2="4229.9" y2="-261.6" gradientTransform="translate(4248.3 306.2) rotate(-180) scale(1 -1)" gradientUnits="userSpaceOnUse">
      <stop offset=".3" stop-color="#fccd2b"/>
      <stop offset=".7" stop-color="#00aaea"/>
      <stop offset="1" stop-color="#3a499c"/>
    </linearGradient>
    <linearGradient id="_未命名漸層_25" data-name="未命名漸層 25" x1="4228.4" y1="-306.5" x2="4228.4" y2="-261.6" gradientTransform="translate(4248.3 306.2) rotate(-180) scale(1 -1)" gradientUnits="userSpaceOnUse">
      <stop offset=".3" stop-color="#fccd2b"/>
      <stop offset=".7" stop-color="#00aaea"/>
      <stop offset="1" stop-color="#3a499c"/>
    </linearGradient>
    <linearGradient id="_未命名漸層_26" data-name="未命名漸層 26" x1="4226.7" y1="-306.5" x2="4226.7" y2="-261.6" gradientTransform="translate(4248.3 306.2) rotate(-180) scale(1 -1)" gradientUnits="userSpaceOnUse">
      <stop offset=".3" stop-color="#fccd2b"/>
      <stop offset=".7" stop-color="#00aaea"/>
      <stop offset="1" stop-color="#3a499c"/>
    </linearGradient>
    <linearGradient id="_未命名漸層_27" data-name="未命名漸層 27" x1="4224.8" y1="-306.5" x2="4224.8" y2="-261.6" gradientTransform="translate(4248.3 306.2) rotate(-180) scale(1 -1)" gradientUnits="userSpaceOnUse">
      <stop offset=".3" stop-color="#fccd2b"/>
      <stop offset=".7" stop-color="#00aaea"/>
      <stop offset="1" stop-color="#3a499c"/>
    </linearGradient>
    <linearGradient id="_未命名漸層_28" data-name="未命名漸層 28" x1="4222.4" y1="-306.5" x2="4222.4" y2="-261.6" gradientTransform="translate(4248.3 306.2) rotate(-180) scale(1 -1)" gradientUnits="userSpaceOnUse">
      <stop offset=".3" stop-color="#fccd2b"/>
      <stop offset=".7" stop-color="#00aaea"/>
      <stop offset="1" stop-color="#3a499c"/>
    </linearGradient>
    <linearGradient id="_未命名漸層_29" data-name="未命名漸層 29" x1="4219.7" y1="-306.5" x2="4219.7" y2="-261.6" gradientTransform="translate(4248.3 306.2) rotate(-180) scale(1 -1)" gradientUnits="userSpaceOnUse">
      <stop offset=".3" stop-color="#fccd2b"/>
      <stop offset=".7" stop-color="#00aaea"/>
      <stop offset="1" stop-color="#3a499c"/>
    </linearGradient>
    <linearGradient id="_未命名漸層_30" data-name="未命名漸層 30" x1="4217.8" y1="-306.5" x2="4217.8" y2="-261.6" gradientTransform="translate(4248.3 306.2) rotate(-180) scale(1 -1)" gradientUnits="userSpaceOnUse">
      <stop offset=".3" stop-color="#fccd2b"/>
      <stop offset=".7" stop-color="#00aaea"/>
      <stop offset="1" stop-color="#3a499c"/>
    </linearGradient>
    <linearGradient id="_未命名漸層_31" data-name="未命名漸層 31" x1="4216.1" y1="-306.5" x2="4216.1" y2="-261.6" gradientTransform="translate(4248.3 306.2) rotate(-180) scale(1 -1)" gradientUnits="userSpaceOnUse">
      <stop offset=".3" stop-color="#fccd2b"/>
      <stop offset=".7" stop-color="#00aaea"/>
      <stop offset="1" stop-color="#3a499c"/>
    </linearGradient>
    <linearGradient id="_未命名漸層_32" data-name="未命名漸層 32" x1="4214.5" y1="-306.5" x2="4214.5" y2="-261.6" gradientTransform="translate(4248.3 306.2) rotate(-180) scale(1 -1)" gradientUnits="userSpaceOnUse">
      <stop offset=".3" stop-color="#fccd2b"/>
      <stop offset=".7" stop-color="#00aaea"/>
      <stop offset="1" stop-color="#3a499c"/>
    </linearGradient>
    <linearGradient id="_未命名漸層_33" data-name="未命名漸層 33" x1="4213.2" y1="-306.5" x2="4213.2" y2="-261.6" gradientTransform="translate(4248.3 306.2) rotate(-180) scale(1 -1)" gradientUnits="userSpaceOnUse">
      <stop offset=".3" stop-color="#fccd2b"/>
      <stop offset=".7" stop-color="#00aaea"/>
      <stop offset="1" stop-color="#3a499c"/>
    </linearGradient>
    <linearGradient id="_未命名漸層_34" data-name="未命名漸層 34" x1="4212.2" y1="-306.5" x2="4212.2" y2="-261.6" gradientTransform="translate(4248.3 306.2) rotate(-180) scale(1 -1)" gradientUnits="userSpaceOnUse">
      <stop offset=".3" stop-color="#fccd2b"/>
      <stop offset=".7" stop-color="#00aaea"/>
      <stop offset="1" stop-color="#3a499c"/>
    </linearGradient>
    <linearGradient id="_未命名漸層_35" data-name="未命名漸層 35" x1="4211.5" y1="-306.5" x2="4211.5" y2="-261.6" gradientTransform="translate(4248.3 306.2) rotate(-180) scale(1 -1)" gradientUnits="userSpaceOnUse">
      <stop offset=".3" stop-color="#fccd2b"/>
      <stop offset=".7" stop-color="#00aaea"/>
      <stop offset="1" stop-color="#3a499c"/>
    </linearGradient>
    <linearGradient id="_未命名漸層_36" data-name="未命名漸層 36" x1="4211.2" y1="-306.5" x2="4211.2" y2="-261.6" gradientTransform="translate(4248.3 306.2) rotate(-180) scale(1 -1)" gradientUnits="userSpaceOnUse">
      <stop offset=".3" stop-color="#fccd2b"/>
      <stop offset=".7" stop-color="#00aaea"/>
      <stop offset="1" stop-color="#3a499c"/>
    </linearGradient>
    <linearGradient id="_未命名漸層_37" data-name="未命名漸層 37" x1="26.6" y1="31.4" x2="26.1" y2="17.6" gradientTransform="translate(0 44) scale(1 -1)" gradientUnits="userSpaceOnUse">
      <stop offset=".4" stop-color="#fccd2b"/>
      <stop offset="1" stop-color="#00aaea"/>
    </linearGradient>
  </defs>
  <!-- Generator: Adobe Illustrator 28.7.3, SVG Export Plug-In . SVG Version: 1.2.0 Build 164)  -->
  <g>
    <g id="_圖層_2">
      <g>
        <g>
          <path class="cls-23" d="M63,23.3c.6.2.9.4.9.8s0,.2-.1.3c0,.1,0,.3,0,.5,0,.2.2.4.3.6h.2c0,0,.3.2.3.2h.3c0,.1.3.3.3.3.3.2.6.3.7.4.3.2.9.5,1.6.8,1,.5,1.7.9,2,1,1.1.4,2.1.7,2.8.7.3,0,.4,0,.4.2s0,0,0,.2c0,.2-.4.5-.9.8-.8.5-1.4.7-1.8.7s-.2,0-.3,0c-.2,0-.5-.2-.9-.7-.2-.2-.6-.6-1.3-1.1-.5-.5-1.1-.9-1.7-1.2-.8-.5-1.4-.9-1.7-1.1-.3-.2-.5-.3-.7-.3s0,0-.1,0c-.1.2-.6.5-1.4,1.1-.9.7-1.5,1.2-2,1.4-.9.6-1.8,1-2.7,1.4-.6.3-1.2.4-1.7.4s-.5,0-.6-.1c-.2-.1-.3-.4-.3-.8.1-.3.3-.6.6-1,.3-.2.5-.3.7-.5h0c0,0,.2,0,.3.1.1.1.3.2.4.2s0,0,.1,0c0,0,.1,0,.2,0,.5,0,1.4-.3,2.5-.8.7-.3,1.3-.7,1.7-1.1l.2-.2c.2-.2.3-.3.4-.3.3-.3.5-.7.5-1.1s0-.2,0-.3c0-.2,0-.3,0-.4,0-.6.3-1,.9-1.1h0ZM63.9,30.9v.2c0,.5,0,1,0,1.6h.9c.2,0,.5,0,.8,0,.2,0,.3,0,.4,0,1,0,1.5.2,1.5.7s0,.4-.3.4c0,0-.3,0-.7,0-.9,0-1.8,0-2.7,0v.7c0,.5,0,1,0,1.5,1.3,0,2.5,0,3.5,0s1.6.2,1.7.7c0,.3-.1.4-.3.5,0,0-.4,0-.9,0h-2.4s-.9,0-.9,0h-1c-.8,0-1.5.1-2.3.2-1.5.2-2.5.3-3,.3s-.6-.3-.7-.8c0-.3.3-.5.6-.7.4,0,.8,0,1.3,0,.6,0,1.7,0,3.2-.2v-.3c0-.8,0-1.4,0-1.8-1.4,0-2.4.2-3.1.3,0,0,0,0-.1,0-.3,0-.5-.2-.6-.6,0-.3.2-.5.4-.6.2,0,.8-.2,1.8-.2,1,0,1.5,0,1.5,0h0c0-.5,0-.8,0-1h0c0-.3,0-.5,0-.7,0,0,0,0,0,0h-1.1c-1.2.1-1.8.2-2,.2,0,0-.1,0-.2,0-.3,0-.5-.2-.5-.7,0-.3.2-.5.5-.6.4,0,.8,0,1.2,0s1,0,1.6,0c.5,0,.9,0,.9,0h3.2c.9,0,1.4.2,1.4.6s0,.4-.3.5c0,0-.3,0-.8,0h-2.6Z"/>
          <path class="cls-23" d="M81.2,27.8c-1.1,0-2.2.2-3.1.4-.9.2-1.5.4-1.9.5,0,0-.2,0-.3.1h-.2c0,0-.2.2-.2.2-.3.1-.4.2-.5.2-.3,0-.4-.2-.4-.6,0-.8.3-1.3.9-1.6.7,0,1.6,0,2.8-.3,1-.1,2.2-.2,3.7-.2,0-.3,0-.5,0-.6s-.2-.4-.5-.6c-.2,0-.3-.2-.3-.5.1-.5.4-.8.9-.8s.6,0,1,.3c.4.3.6.6.6.7v.2c0,.3-.2.5-.5.7-.1.1-.3.3-.5.6h0c2.1,0,3.7.2,4.8.3.4,0,.6,0,.7,0,.5,0,1.2,0,2.1-.3,0,0,.1,0,.2,0,.2,0,.3.1.3.3,0,0,0,0,0,0,0,.2-.3.5-.8,1-.6.6-1.1.9-1.4.9s-.7-.1-1.4-.4c-.5-.2-1-.4-1.6-.5-.4,0-1-.1-1.8-.1h-1.1s0,0,0,0c0,.2-.3.8-.8,1.7,1.2.5,2.1.9,2.7,1.3.8.5,1.2,1.1,1.2,1.7s-.2,1.5-.7,2.4c-.4.8-.9,1.4-1.5,2-.8.8-1.4,1.2-1.8,1.2s-.1,0-.2,0c0,0,0,0-.1,0-.3,0-.4-.2-.4-.7s0-.8.3-1.1c0-.1.2-.2.5-.3.7-.3,1.3-.9,1.8-1.7.4-.7.7-1.3.7-1.9-.2-.7-1.2-1.3-3.1-1.8-.1.1-.2.3-.3.5-.6.9-1.2,1.8-2,2.5-.6.6-1.4,1.2-2.5,1.9-.6.4-1.1.7-1.6.8-.4.1-.7.2-.9.2-.4,0-.6-.2-.6-.6s0-.5.3-.9c.3-.6.6-.8.9-.8h.3s.2,0,.2,0c.8-.2,1.7-.6,2.6-1.2,1.1-.7,1.9-1.6,2.6-2.6h0,0c.7-1.1,1-1.8,1-2.3,0,0,0,0,0,0h0c0,0,0-.1,0-.1,0,0,0,0,0,0h0Z"/>
          <path class="cls-23" d="M94,28.8c-1,.8-1.7,1.2-2,1.2s-.4-.4-.4-1.1,0-.7.1-1.1c0-.1.2-.2.3-.3,0,0,0,0,.2,0,.1,0,.3,0,.3.1.3,0,.8-.3,1.6-.8,1.1-.6,1.7-1,2-1.2.3-.3.6-.4.7-.4s.3,0,.3.1c0,.2-.2.5-.5,1-.3.4-.6.8-.9,1.1,0,0-.2.2-.4.4h0c0,0,0,.2,0,.4,0,.4,0,1.6,0,3.6,0,.6,0,1,0,1.4,0,1.2,0,2,0,2.5,0,.6,0,.9,0,.9,0,.6,0,1-.2,1.2,0,0-.2.2-.3.2-.4-.1-.6-.7-.6-1.7,0-.1,0-.5,0-1.2v-1.9c0-.5,0-1.2,0-2.1,0-1.1,0-1.8,0-2.3h0ZM101.6,28s0-.1,0-.2h0c0-.1,0-.3,0-.3h0c0-.3-.1-.5-.4-.7-.2,0-.3-.3-.3-.6.1-.5.4-.7,1-.7s.6,0,1.1.3c.4.3.6.6.6.8,0,.3-.1.6-.5.7-.2.2-.3.4-.5.6,1.1-.1,2.1-.2,3.1-.2s1.5.2,1.5.7,0,.4-.3.5c0,0-.3,0-.7,0h-1.2s0,0,0,.1,0,.2,0,.3c0,1.5-.3,2.7-.5,3.8,0,.4-.1.6-.2.9h.2c0,0,.5,0,1.2,0,.5,0,1.1,0,1.7,0s.3,0,.7,0c.7,0,1.2-.1,1.7-.3.3,0,.4.1.4.3s-.1.5-.4,1.1c-.4.7-.7,1-1.1,1s-.7-.1-1.2-.4c0,0-.1,0-.3,0-.2,0-.5-.1-.8-.3-.6-.2-1.5-.3-2.9-.3h-1.1c-.6,0-1.2,0-1.7,0-.3,0-.5,0-.5,0-.2,0-.4,0-.6,0h-.4c0,0-.3.1-.3.1-.4,0-.6,0-.6,0-.4,0-.7.2-1,.3-.4.2-.6.3-.8.3-.3,0-.4-.2-.4-.6s0-.1,0-.2c.1-.5.4-.8.8-1,.2-.1,1.1-.2,2.7-.2.2,0,.4,0,.6,0,0-2.3-.2-3.7-.4-4.1,0-.2,0-.3-.1-.4h0c0,0,0-.2,0-.2,0,0,0-.1,0-.1-.2,0-.4,0-.7.1-.3,0-.4,0-.5,0-.1,0-.2,0-.3,0-.4,0-.6-.3-.6-.8.2-.5.8-.8,1.7-.8s0,0,.2,0c0,0,.2,0,.4,0,.5,0,1.2,0,2.1-.1h0ZM100.7,29.3c.1.7.2,1.7.2,3.1s0,1.2,0,1.9c.5,0,.9,0,1.4,0h1.2v-.2c0,0,0-.2,0-.4,0,0,0-.2,0-.4,0-.3,0-.7.1-1.2,0-.5,0-1.1,0-1.8v-.3c0-.2,0-.5,0-.8-.7,0-1.4,0-2.3,0-.2,0-.4,0-.6,0h0Z"/>
          <path class="cls-23" d="M118.6,26.5c0-.9,0-1.5,0-1.8,0-.3-.1-.6-.1-.8s0-.3.2-.6c.2-.1.4-.2.6-.2s.4,0,.6.2c.2.2.3.4.3.6h0c0,.4,0,.6,0,.8,0,0,0,.2,0,.3v.4s0,.3,0,.3v.2s0,.6,0,.6c1.9,0,3.1,0,3.5-.1h.5c.2,0,.4-.2.6-.3.4,0,.7.2,1,.5.3.3.4.5.4.7,0,.3,0,.7,0,1-.2.5-.3.8-.4,1-.1.4-.2,1-.2,1.9,0,.8-.3,1.2-.8,1.2s-.4,0-.8-.2h-3.3c-.2,0-.3,0-.3,0,0,.8,0,1.6,0,2.5v2.4c0,.1,0,.2,0,.4s0,.2,0,.2c0,.8-.2,1.2-.6,1.2s-.4-.2-.6-.6c0-.3,0-.7,0-1.4v-4s0-.7,0-.7c-.6,0-1,0-1.3,0s-.3,0-.4,0c0,0-.1,0-.3,0-.5,0-.8.1-1,.2-.2,0-.3,0-.5.1-.1,0-.3,0-.4,0h-.2s-.2,0-.2,0c-.2,0-.4,0-.4,0,0,0-.2,0-.3,0-.1-.1-.2-.3-.3-.6,0-.2,0-.3,0-.5,0,0,0-.2,0-.2,0-.2,0-.5,0-.8,0-1.2-.1-2.1-.4-2.5-.1-.4-.2-.6-.2-.8,0-.3.1-.6.4-.9.2,0,.4,0,.7,0,.2,0,.4,0,.6,0s.5,0,.9,0c0,0,.1,0,.3,0h.5c.4,0,1.2,0,2.3,0h0ZM118.6,31v-1.8c0,0,0-.2,0-.5,0-.3,0-.7,0-1.2-1.4,0-2.5.2-3.3.3-.3,0-.5,0-.5.2,0,0,0,.2,0,.4,0,.4,0,1.1,0,1.9,0,.3,0,.5,0,.6,0,.3,0,.4.2.6.1,0,.3,0,.6-.2.9-.1,1.9-.2,3.1-.2h0ZM119.9,27.6v3.4h3.1c.4,0,.6,0,.7,0,.1,0,.3-.5.3-1.1,0-1,.1-1.6.1-1.8s-.1-.3-.4-.4h-3.8Z"/>
          <path class="cls-23" d="M137.8,33.7c-.6.9-1.5,1.7-2.6,2.4-.7.4-1.6.8-2.6,1.1-.8.2-1.6.4-2.4.4s-.9-.3-.9-.8,0-.5.3-.8c.3-.5.6-.7,1.1-.8.4.2.8.3,1.3.3,1.9,0,3.6-.8,4.9-2.5-.6-.3-1-.5-1.4-.7-.5-.2-1.1-.4-1.7-.4-.1,0-.2,0-.3,0-.2,0-.3-.1-.4-.4.1-.6.4-1,1-1s.7,0,1.2.3c.6.2,1.2.5,1.7.9.1,0,.2.1.4.2.4-.9.6-1.8.6-2.7,0-.4.2-.5.6-.6.5.1.7.4.7.8s-.1,1-.4,1.7c-.1.4-.3.9-.5,1.3,1.4.9,2.5,1.5,3.3,1.9,1.3.7,2.8,1,4.6,1.1.2,0,.2.1.3.3,0,.3-.7.8-1.9,1.5-.5.3-1,.5-1.4.5-.4-.1-1-.5-1.7-1.1,0,0-.2-.1-.4-.3-.3-.2-.7-.6-1.2-1,0,0-.2-.2-.5-.4,0,0-.4-.3-1-.8l-.5-.4-.3-.3h0ZM136.8,27.2c2.1,0,3.9,0,5.5,0s1.8.2,1.8.7,0,.4-.3.5c0,0-.4,0-.9,0h-1.1c-1.2,0-3.7.2-7.5.5h-1.5c0,.1-1,.2-1,.2-.8,0-1.2.1-1.3.1s-.1,0-.2,0c-.4,0-.6-.3-.6-.8,0-.3.3-.6.5-.6.3-.1.8-.2,1.3-.2s.1,0,.4,0c0,0,.2,0,.3,0,.9,0,2.2,0,4-.2,0-.1,0-.3.1-.6,0-.3,0-.5,0-.7s-.1-.3-.3-.4c-.3-.1-.4-.3-.4-.6,0-.4.4-.7.9-.9.4,0,.9.2,1.3.6.3.2.4.4.4.6,0,.3-.2.6-.5.8-.1.1-.3.3-.4.6v.2c-.3.2-.4.3-.5.4h0Z"/>
        </g>
        <g>
          <path class="cls-23" d="M61.9,10.3v2.4c0,0-.2,0-.2,0-.1-.6-.4-1.1-.8-1.5-.4-.4-.8-.6-1.3-.6s-.7,0-.9.3-.3.4-.3.7,0,.3.1.4c.1.2.3.3.5.5.2.1.6.3,1.2.6.9.4,1.4.8,1.7,1.2.3.4.4.8.4,1.3s-.2,1.1-.7,1.6-1.1.7-1.8.7-.4,0-.6,0c-.2,0-.5-.1-.8-.3-.2,0-.3-.1-.4-.1s-.2,0-.3.1c-.1,0-.2.2-.3.3h-.2v-2.7h.2c.2.8.5,1.4.9,1.8s.9.6,1.5.6.7-.1,1-.3c.2-.2.4-.5.4-.8s0-.3-.1-.5c0-.2-.2-.3-.4-.5-.2-.1-.5-.3-1-.6-.7-.3-1.1-.6-1.4-.8s-.5-.5-.7-.8c-.2-.3-.2-.6-.2-.9,0-.6.2-1.1.6-1.5.4-.4,1-.6,1.6-.6s.5,0,.7,0c.2,0,.4.1.6.2.2.1.4.2.5.2s.2,0,.2,0c0,0,.1-.2.2-.4h.2,0Z"/>
          <path class="cls-23" d="M68.6,15.3l2-4.8h3v.2h-.2c-.2,0-.4,0-.5.1,0,0-.2.1-.2.3,0,0,0,.3,0,.7v4.8c0,.4,0,.6,0,.7,0,0,.1.2.2.2.1,0,.3.1.5.1h.2v.2h-3.8v-.2h.2c.2,0,.4,0,.5-.1,0,0,.2-.1.2-.3,0,0,0-.3,0-.7v-5.4l-2.8,6.6h-.1l-2.8-6.6v5.1c0,.4,0,.6,0,.7,0,.2.1.3.3.4.2.1.4.2.7.2v.2h-2.5v-.2h0c.2,0,.3,0,.4,0,.1,0,.2-.1.3-.2,0,0,.1-.2.2-.4,0,0,0-.2,0-.5v-4.6c0-.4,0-.6,0-.7,0,0-.1-.2-.2-.2s-.3-.1-.5-.1h-.2v-.2h3s2,4.8,2,4.8Z"/>
          <path class="cls-23" d="M78.9,15.7h-2.6l-.3.7c0,.2-.2.4-.2.6s0,.4.2.4c0,0,.3,0,.7.1v.2h-2.4v-.2c.3,0,.5-.1.6-.3s.4-.5.6-1.1l2.6-5.8h0l2.6,6c.3.6.5.9.6,1.1.1.1.3.2.5.2v.2h-3.5v-.2h.1c.3,0,.5,0,.6-.1,0,0,.1-.1.1-.3s0-.1,0-.2c0,0,0-.2-.2-.4l-.4-.9h0ZM78.7,15.3l-1.1-2.5-1.1,2.5h2.2Z"/>
          <path class="cls-23" d="M85.7,14.4v2c0,.4,0,.6,0,.7,0,0,.1.2.3.2.1,0,.4,0,.7,0v.2h-3.7v-.2c.3,0,.6,0,.7,0,.1,0,.2-.1.3-.2,0,0,0-.4,0-.7v-4.7c0-.4,0-.6,0-.7,0,0-.1-.2-.3-.2-.1,0-.4,0-.7,0v-.2h3.4c.9,0,1.5,0,1.9.2.4.1.7.4,1,.7.3.3.4.7.4,1.1s-.2,1-.6,1.3c-.2.2-.6.4-1,.5l1.8,2.5c.2.3.4.5.5.6.1.1.3.2.5.2v.2h-2.3l-2.3-3.3s-.5,0-.5,0ZM85.7,10.9v3.2h.3c.5,0,.9,0,1.1-.1.2,0,.4-.3.6-.5s.2-.5.2-.9c0-.6-.1-1-.4-1.2-.3-.3-.7-.4-1.3-.4,0,0-.6,0-.6,0Z"/>
          <path class="cls-23" d="M97.8,10.5v2h-.2c-.1-.5-.2-.8-.4-1-.1-.2-.3-.4-.6-.5-.1,0-.4,0-.7,0h-.5v5.6c0,.4,0,.6,0,.7,0,0,.1.2.2.2.1,0,.3.1.5.1h.2v.2h-3.8v-.2h.2c.2,0,.4,0,.5-.1,0,0,.2-.1.2-.3,0,0,0-.3,0-.7v-5.6h-.5c-.5,0-.8.1-1.1.3-.3.3-.5.7-.6,1.2h-.2v-2h6.5,0Z"/>
          <path class="cls-23" d="M109.2,10.3v2.5h-.2c-.2-.7-.4-1.2-.9-1.5s-.9-.5-1.5-.5-.9.1-1.2.4-.7.6-.8,1c-.2.5-.3,1.1-.3,1.8s0,1.2.2,1.8c.2.5.4.9.8,1.2s.8.4,1.4.4.9,0,1.3-.3.8-.5,1.2-1v.6c-.4.4-.8.7-1.3.9s-1,.3-1.5.3-1.5-.2-2.1-.5c-.6-.3-1.1-.8-1.4-1.3s-.5-1.2-.5-1.9.2-1.4.5-2c.4-.6.9-1.1,1.5-1.4s1.3-.5,2-.5,1.1.1,1.6.3c.3.1.5.2.6.2s.2,0,.3-.1c0,0,.1-.2.2-.4h.2Z"/>
          <path class="cls-23" d="M112.8,10.5v2.9c.3-.3.5-.5.8-.6.2-.1.5-.2.7-.2s.6,0,.8.3c.2.2.4.4.4.6,0,.2.1.6.1,1.2v2c0,.4,0,.6.1.7,0,0,.2.2.4.2v.2h-2.5v-.2c.2,0,.3,0,.4-.2,0,0,0-.3,0-.7v-2.2c0-.4,0-.7,0-.8,0-.1,0-.2-.2-.3,0,0-.2,0-.3,0-.1,0-.3,0-.4.1-.1,0-.3.3-.4.5v2.7c0,.4,0,.6,0,.7,0,.1.2.2.4.2v.2h-2.5v-.2c.2,0,.4,0,.4-.2,0,0,0-.3,0-.7v-5.1c0-.4,0-.6-.1-.7s-.2-.2-.4-.2v-.2h2,0Z"/>
          <path class="cls-23" d="M119.4,12.7v4c0,.4,0,.6.1.7,0,0,.2.2.5.2v.2h-2.7v-.2c.2,0,.4,0,.5-.2,0,0,.1-.3.1-.7v-2.9c0-.4,0-.6-.1-.7,0,0-.2-.2-.5-.2v-.2s2.1,0,2.1,0ZM118.6,10.3c.2,0,.4,0,.6.2s.2.4.2.6,0,.4-.2.6c-.2.2-.4.2-.6.2s-.4,0-.6-.2-.2-.4-.2-.6,0-.4.2-.6c.2-.2.4-.2.6-.2h0Z"/>
          <path class="cls-23" d="M123.1,12.7v.6c.3-.3.5-.5.7-.6.2-.1.5-.2.8-.2s.6,0,.8.3c.2.2.4.4.4.7,0,.2,0,.6,0,1.2v2c0,.4,0,.6.1.7,0,0,.2.2.4.2v.2h-2.5v-.2c.2,0,.3-.1.4-.2,0,0,0-.3,0-.7v-2.2c0-.4,0-.7,0-.8,0-.1,0-.2-.2-.3,0,0-.2,0-.3,0-.3,0-.6.2-.9.7v2.7c0,.4,0,.6.1.7,0,0,.2.2.4.2v.2h-2.5v-.2c.2,0,.4,0,.4-.2,0,0,0-.3,0-.7v-2.8c0-.4,0-.6-.1-.7,0,0-.2-.2-.4-.2v-.2h2,0Z"/>
          <path class="cls-23" d="M131.9,15.1h-2.8c0,.7.2,1.2.5,1.6.3.3.5.4.9.4s.4,0,.6-.2c.2-.1.4-.3.6-.6h.2c-.3.7-.6,1.1-.9,1.3s-.7.4-1.1.4c-.7,0-1.3-.3-1.7-.9-.3-.5-.5-1-.5-1.7s.2-1.5.7-2c.4-.5,1-.7,1.6-.7s1,.2,1.3.6c.4.4.6,1,.6,1.9h0ZM130.6,14.7c0-.6,0-1,0-1.2s-.2-.4-.3-.5c0,0-.2,0-.3,0-.2,0-.3,0-.5.3-.2.3-.3.8-.3,1.3v.2h1.5,0Z"/>
          <path class="cls-23" d="M136.3,12.6v1.7c0,0,0,0,0,0-.2-.5-.4-.9-.7-1s-.5-.3-.7-.3-.3,0-.4.1c-.1,0-.2.2-.2.3s0,.2.1.3c.1.1.4.4,1,.8.5.4.9.7,1,.9s.3.5.3.8,0,.6-.2.8c-.1.3-.3.5-.6.6-.3.1-.5.2-.8.2s-.6,0-1-.2c-.1,0-.2,0-.2,0-.1,0-.2,0-.3.3h-.2v-1.8c0,0,0,0,0,0,.2.5.4.8.7,1.1.3.2.5.4.8.4s.3,0,.4-.2.2-.2.2-.4,0-.3-.2-.4-.4-.3-.7-.6c-.5-.4-.9-.7-1.1-.9-.2-.3-.4-.6-.4-1s.1-.7.4-1.1c.3-.3.7-.5,1.2-.5s.5,0,.8.2c0,0,.2,0,.2,0s.1,0,.2,0c0,0,0,0,.2-.2h.2Z"/>
          <path class="cls-23" d="M142.2,15.1h-2.8c0,.7.2,1.2.5,1.6.3.3.5.4.9.4s.4,0,.6-.2c.2-.1.4-.3.6-.6h.2c-.3.7-.6,1.1-.9,1.3s-.7.4-1.1.4c-.7,0-1.3-.3-1.7-.9-.3-.5-.5-1-.5-1.7s.2-1.5.7-2c.4-.5,1-.7,1.6-.7s1,.2,1.3.6c.4.4.6,1,.6,1.9h0ZM140.8,14.7c0-.6,0-1,0-1.2s-.2-.4-.3-.5c0,0-.2,0-.3,0-.2,0-.3,0-.5.3-.2.3-.3.8-.3,1.3v.2h1.5,0Z"/>
        </g>
      </g>
      <g>
        <g>
          <polygon class="cls-13" points="26.2 22 47.4 16.1 48 18.6 26.2 22"/>
          <polygon class="cls-15" points="26.2 22 46 12.4 47 14.8 26.2 22"/>
          <polygon class="cls-28" points="26.2 22 44 9 45.4 11.2 26.2 22"/>
          <polygon class="cls-38" points="26.2 22 41.4 6.1 43.2 7.9 26.2 22"/>
          <polygon class="cls-26" points="26.2 22 38.3 3.6 40.4 5.1 26.2 22"/>
          <polygon class="cls-9" points="26.2 22 34.8 1.8 37.1 2.9 26.2 22"/>
          <polygon class="cls-7" points="26.2 22 31.1 .6 33.5 1.2 26.2 22"/>
          <polygon class="cls-16" points="26.2 22 27.2 0 29.7 .3 26.2 22"/>
          <polygon class="cls-5" points="26.2 22 23.2 .2 25.8 0 26.2 22"/>
          <polygon class="cls-36" points="26.2 22 19.4 1.1 21.9 .4 26.2 22"/>
          <polygon class="cls-6" points="26.2 22 15.8 2.6 18.1 1.6 26.2 22"/>
          <polygon class="cls-4" points="26.3 22 12.5 4.8 14.6 3.3 26.3 22"/>
          <polygon class="cls-34" points="26.3 22 9.6 7.6 11.4 5.7 26.3 22"/>
          <polygon class="cls-25" points="26.3 22 7.3 10.7 8.8 8.6 26.3 22"/>
          <polygon class="cls-17" points="26.3 22 5.6 14.3 6.6 12 26.3 22"/>
          <polygon class="cls-39" points="26.3 22 4.6 18.1 5.2 15.6 26.3 22"/>
          <polygon class="cls-31" points="26.3 22 4.2 22 4.4 19.5 26.3 22"/>
          <polygon class="cls-19" points="26.2 22 48.2 22 48.1 19.5 26.2 22"/>
          <polygon class="cls-22" points="26.3 22 4.6 26 4.3 23.4 26.3 22"/>
          <polygon class="cls-10" points="26.2 22 47.8 26 48.2 23.4 26.2 22"/>
          <polygon class="cls-11" points="26.2 22 5.6 29.8 4.9 27.3 26.2 22"/>
          <polygon class="cls-35" points="26.2 22 7.4 33.3 6.2 31 26.2 22"/>
          <polygon class="cls-1" points="26.2 22 9.7 36.5 8.1 34.5 26.2 22"/>
          <polygon class="cls-30" points="26.2 22 12.5 39.2 10.6 37.5 26.2 22"/>
          <polygon class="cls-8" points="26.2 22 15.8 41.4 13.6 40.1 26.2 22"/>
          <polygon class="cls-14" points="26.2 22 19.5 42.9 17.1 42 26.2 22"/>
          <polygon class="cls-37" points="26.2 22 23.3 43.8 20.8 43.3 26.2 22"/>
          <polygon class="cls-32" points="26.2 22 27.2 44 24.7 44 26.2 22"/>
          <polygon class="cls-29" points="26.2 22 31.1 43.4 28.6 43.9 26.2 22"/>
          <polygon class="cls-33" points="26.2 22 34.9 42.2 32.5 43.1 26.2 22"/>
          <polygon class="cls-12" points="26.2 22 38.4 40.3 36.2 41.6 26.2 22"/>
          <polygon class="cls-20" points="26.2 22 41.4 37.9 39.5 39.5 26.2 22"/>
          <polygon class="cls-21" points="26.2 22 44 34.9 42.4 36.9 26.2 22"/>
          <polygon class="cls-3" points="26.2 22 46.1 31.5 44.8 33.8 26.2 22"/>
          <polygon class="cls-24" points="26.2 22 47.4 27.8 46.6 30.2 26.2 22"/>
          <polygon class="cls-27" points="26.2 22 48.1 23.9 47.8 26.5 26.2 22"/>
        </g>
        <g>
          <path class="cls-23" d="M44.4,16.9c-.2-.1-.4-.2-.7-.3-1-.2-2.1-.2-3.3-.2-3.1-.2-6.4-1.2-9.5-3-1.2-.7-2.3-1.6-3.2-2.6,0,0,0-.1,0-.2h0s0,0,0,0h0c0,0,0,0,0-.1,0,0,0,0,0-.1h0v-.2h0c0-.9,0-1.7,0-2.4,0-.4-.1-.9-.4-1.3-.2-.4-.6-.4-1-.1-.2.2-.4.4-.5.6-.5.8-.8,1.7-.9,2.7,0,.2,0,.3,0,.5v1.3c-.3.3-.6.5-.9.8h0c-.6.5-1.2.9-1.9,1.4-3.1,1.9-6.3,2.9-9.5,3-1.2,0-2.3,0-3.3.2-.3,0-.5.1-.7.3-.2.1,0,.4.2.6.2.2.5.4.7.5.3.2.7.3,1,.3,2,.4,4.2.5,6.4.4,1,0,2.1-.1,3.2-.2.2,0,.3,0,.5.2,1.3,1.8,2.7,3.4,4,5.1-.8.4-1.5.7-2.3,1-2.1.9-3.6,2-4.4,3.7-.6,1.2-.9,2.6-1.1,4-.2,1.4-.3,2.8-.5,4.2-.2,1.6-.5,3.1-.9,4.5-.5,1.8-1.4,3.4-2.7,4.4-.5.4-1,.8-1.5,1.2-.2.2-.4.4-.5.6-.2.3,0,.8.5,1,.2,0,.3.2.5.2.5,0,1.1,0,1.5,0,2.1-.6,3.7-2.1,4.7-4.2.7-1.6,1-3.4,1.2-5.2.3-1.8.4-3.7.7-5.6.2-1.3.5-2.5,1-3.7.8-1.9,2.3-3,4.6-3.7.4-.1.9-.2,1.3-.3.4,0,.8.1,1.3.3,2.3.7,3.8,1.9,4.6,3.7.5,1.2.8,2.4,1,3.7.3,1.9.4,3.7.7,5.6.2,1.8.6,3.6,1.2,5.2.9,2.1,2.5,3.6,4.7,4.2.5.1,1,0,1.5,0,.1,0,.3,0,.5-.2.5-.2.7-.7.5-1-.2-.2-.3-.4-.5-.6-.5-.4-.9-.8-1.5-1.2-1.3-1-2.2-2.6-2.7-4.4-.4-1.4-.7-2.9-.9-4.5-.2-1.4-.3-2.8-.5-4.2-.2-1.4-.5-2.7-1.1-4-.8-1.7-2.3-2.9-4.4-3.7-.8-.3-1.5-.7-2.3-1,1.4-1.6,2.7-3.3,4-5.1.1-.2.3-.2.5-.2,1.1.1,2.1.2,3.2.2,2.2.1,4.4,0,6.4-.4.3,0,.7-.2,1-.3.2,0,.5-.3.7-.5.3-.2.4-.5.2-.6h0ZM30.2,17.6c-.6,1-1.3,1.9-2,2.7-.5.5-.9,1-1.4,1.5,0,0-.1,0-.2,0,0,0-.1,0-.2,0-.5-.4-1-1-1.4-1.5-.7-.8-1.4-1.7-2-2.7-.4-.6-.3-.7,0-1.1.6-.6,1.3-1,2-1.3.5-.2.9-.5,1.4-.5h.4c.5,0,1,.2,1.4.5.7.4,1.4.8,2,1.3.4.4.4.5,0,1.1h0Z"/>
          <path class="cls-23" d="M40.6,49.3c-.3,0-.6,0-.8,0-2.3-.6-4.1-2.2-5.1-4.6-.7-1.7-1-3.6-1.3-5.3-.1-.9-.2-1.9-.4-2.8-.1-.9-.2-1.8-.4-2.7-.2-1.3-.5-2.5-.9-3.5-.7-1.6-2-2.7-4.2-3.3-.4-.1-.7-.2-1.1-.2-.4,0-.7.1-1.1.2-2.2.7-3.5,1.7-4.2,3.3-.4,1.1-.7,2.2-.9,3.5-.1.9-.2,1.8-.4,2.7-.1.9-.2,1.9-.4,2.8-.2,1.8-.6,3.7-1.3,5.3-1,2.4-2.8,4-5.1,4.6-.5.1-1,0-1.5,0,0,0-.2,0-.2,0-.3,0-.5-.1-.7-.2-.5-.2-.8-.6-.9-1.1,0-.3,0-.6.2-.9s.4-.5.6-.7l.2-.2c.4-.4.8-.7,1.3-1.1,1.1-.8,1.9-2.2,2.5-4.1.4-1.3.7-2.8.9-4.4,0-.6.2-1.2.2-1.8,0-.8.2-1.6.3-2.4.2-1.7.6-3,1.2-4.2.9-1.8,2.4-3,4.8-4,.5-.2,1-.4,1.5-.7-1.2-1.5-2.3-2.9-3.4-4.4-1,.1-2,.2-3,.2h-.2c-2.4.1-4.6,0-6.6-.4-.4,0-.8-.2-1.2-.4-.3-.1-.6-.3-.8-.6-.3-.3-.5-.7-.5-1,0-.3.2-.5.4-.6.3-.2.6-.3.9-.4.8-.1,1.6-.2,2.5-.2.3,0,.5,0,.8,0,3.1-.2,6.3-1.2,9.2-2.9.6-.4,1.2-.8,1.8-1.2,0,0,0,0,.1-.1.2-.2.4-.3.6-.5h0v-.8h0v-.2c0-.2,0-.3,0-.5,0-1.1.4-2.1,1-3,.2-.3.4-.6.7-.8.4-.3.8-.3,1.1-.3.2,0,.6.2.9.6.3.5.4,1,.5,1.5h0c.1.7,0,1.4,0,2v.4h0v.2h0s0,0,0,.1h0c0,0,0,.1,0,.1h0c.9.9,1.9,1.7,3,2.4,2.9,1.8,6.1,2.8,9.2,2.9.3,0,.6,0,.8,0,.9,0,1.7,0,2.5.2.3,0,.6.2.9.4.2.1.3.4.4.6,0,.4-.2.8-.5,1-.3.3-.6.5-.8.6-.4.2-.8.3-1.2.4-2,.4-4.2.5-6.6.4h-.2c-1,0-2-.1-3-.2-1.1,1.5-2.3,2.9-3.4,4.4.5.2,1,.5,1.5.7,2.4,1,3.9,2.3,4.8,4,.6,1.1.9,2.5,1.2,4.2.1.8.2,1.6.3,2.4,0,.6.1,1.2.2,1.8.2,1.6.5,3.1.9,4.4.6,1.9,1.4,3.3,2.5,4.1.5.4.9.7,1.3,1.1l.2.2c.2.2.4.4.6.7.2.2.2.6.2.9-.1.4-.4.8-.9,1.1-.2.1-.5.2-.7.2,0,0-.2,0-.2,0-.2,0-.4,0-.7,0h0ZM26.5,25.3h0c.5,0,.9.2,1.4.3,2.6.8,4.2,2.1,5,4.1.5,1.2.8,2.4,1,3.8.1.9.2,1.9.4,2.8.1.9.2,1.9.4,2.8.2,1.7.5,3.5,1.2,5,.9,2,2.3,3.3,4.2,3.8.3,0,.7,0,1.1,0,0,0,.2,0,.2,0,0,0,0,0,.2,0,0,0,.1-.1.2-.2-.1-.1-.2-.2-.3-.3l-.2-.2c-.4-.3-.8-.7-1.2-1-1.3-1-2.3-2.6-3-4.8-.4-1.4-.7-2.9-1-4.6,0-.6-.2-1.2-.2-1.8,0-.8-.2-1.6-.3-2.4-.2-1.6-.5-2.7-1-3.8-.7-1.5-2-2.5-4.1-3.4-.7-.3-1.5-.6-2.3-1.1-.2,0-.3-.3-.4-.5,0-.2,0-.4.1-.6,1.4-1.7,2.7-3.3,4-5,.3-.4.6-.5,1.1-.5,1,.1,2,.2,3,.2h.2c2.3.1,4.4,0,6.2-.4.3,0,.6-.2.9-.3,0,0,.2,0,.2-.1-.7-.1-1.4-.1-2.2-.2-.3,0-.6,0-.8,0-3.3-.2-6.7-1.2-9.8-3.1-1.2-.8-2.4-1.7-3.4-2.7,0,0-.1-.1-.1-.2,0,0,0-.2,0-.2h0s0,0,0-.1h0c0,0,0-.1,0-.2,0,0,0,0,0-.1h0v-.2h0v-.6c0-.6,0-1.2,0-1.8h0c0-.4-.1-.7-.3-1,0,0,0,0,0,0-.1.1-.3.2-.4.4-.5.7-.7,1.5-.8,2.3,0,.2,0,.3,0,.4v.2h0v1.1c0,.2,0,.4-.2.5-.3.3-.6.6-.9.8h0c-.6.5-1.3,1-2,1.4-3.1,1.9-6.5,3-9.8,3.1-.3,0-.6,0-.8,0-.8,0-1.6,0-2.2.2,0,0,.2.1.2.1.3.1.6.2.9.3,1.9.4,4,.5,6.2.4h.2c1,0,2-.1,3-.2.4,0,.8.1,1.1.5,1.3,1.7,2.6,3.4,4,5,.1.2.2.4.1.6,0,.2-.2.4-.4.5-.9.4-1.6.8-2.3,1.1-2.1.9-3.4,1.9-4.1,3.4-.5,1-.8,2.2-1,3.8s-.2,1.6-.3,2.4c0,.6-.1,1.2-.2,1.8-.2,1.7-.5,3.2-1,4.6-.6,2.1-1.6,3.7-2.9,4.8-.4.3-.8.7-1.2,1l-.2.2c-.1,0-.2.2-.3.3,0,0,0,.1.2.2.1,0,.2,0,.2,0,0,0,.2,0,.2,0,.4,0,.8,0,1.1,0,1.9-.5,3.3-1.8,4.2-3.8.7-1.5,1-3.3,1.2-5,.1-.9.2-1.9.4-2.8.1-.9.2-1.8.4-2.8.2-1.4.5-2.7,1-3.8.8-2,2.4-3.3,5-4.1.5-.2.9-.3,1.4-.3h0,0ZM41.4,47.9h0ZM11.5,47.9h0ZM41.9,47.8h0ZM44.1,17.5h0ZM44,17.5h0ZM8.9,17.5h0ZM26.4,22.5c-.2,0-.4,0-.6-.3-.6-.5-1.1-1.1-1.5-1.6-.7-.8-1.5-1.7-2.1-2.8-.4-.8-.5-1.2.2-1.9.7-.7,1.5-1.1,2.1-1.5.6-.3,1.1-.6,1.7-.6h.4c.7,0,1.3.3,1.8.6.7.4,1.4.8,2.1,1.5.7.7.6,1.2.2,1.9h0c-.7,1.1-1.4,2-2.1,2.8-.4.5-.9,1-1.5,1.6-.2.2-.5.3-.7.3h0ZM26.2,21.3h0ZM26.7,21.3h0ZM23.2,17s0,.1.1.2c.6,1,1.2,1.7,2,2.6.3.4.7.8,1.2,1.2.4-.4.8-.9,1.2-1.2.8-.9,1.4-1.7,2-2.6,0,0,0-.2.1-.2,0,0,0,0,0,0-.6-.6-1.3-.9-1.8-1.2-.4-.2-.8-.4-1.1-.4h-.4c-.3,0-.7.2-1.1.4-.7.4-1.3.7-1.8,1.2,0,0,0,0,0,0ZM30.2,17.6h0Z"/>
        </g>
        <path class="cls-2" d="M31.2,16.6c0-.6-.4-1-.9-1.1,0,0,0,0,0,0-.5-.2-1-.4-1.5-.6-.6-.2-1.1-.5-1.7-.9-.4-.2-.7-.2-1.1,0-.4.3-.9.5-1.3.7-.7.3-1.4.6-2,.8-.4.1-.8.3-.9.9-.1.6.2,1.3.5,1.8,0,0,0,0,0,0,0,0,.1.2.2.3.3.4.5.8.8,1.1.4.5.8,1,1.1,1.4.3.4.7.8,1,1.1s.6.5,1.1.5h0c.5,0,.9-.3,1.1-.6.9-.9,1.8-2.1,2.6-3.3.2-.3.3-.5.5-.8.3-.5.4-.9.5-1.4v-.2h0Z"/>
        <path class="cls-23" d="M26.5,19.7c-.2,0-.3,0-.5-.2l-1.5-1.5c-.3-.3-.3-.7,0-.9s.7-.3.9,0l1,1,1-1c.3-.3.7-.3.9,0s.3.7,0,.9l-1.5,1.5c-.1.1-.3.2-.5.2Z"/>
      </g>
      <text class="cls-18" transform="translate(490 30)"><tspan x="0" y="0">#652d05;</tspan></text>
    </g>
  </g>
</svg>