<?xml version="1.0" encoding="UTF-8"?><svg id="_圖層_2" xmlns="http://www.w3.org/2000/svg" viewBox="0 0 485.07 130.01"><defs><style>.cls-1{fill:#00459c;}.cls-1,.cls-2,.cls-3,.cls-4,.cls-5,.cls-6,.cls-7,.cls-8,.cls-9{stroke-width:0px;}.cls-2{fill:#4fc2f1;}.cls-3{fill:#b99cc9;}.cls-4{fill:#f8c48f;}.cls-5{fill:#fff;}.cls-6{fill:#f29031;}.cls-7{fill:#008671;}.cls-8{fill:#008bd5;}.cls-9{fill:#ef8bb6;}</style></defs><g id="_圖層_1-2"><path class="cls-2" d="m19.14,125.01c-3.57,0-6.91-.92-10.04-2.77-2-1.5-2.24-3.19-.7-5.07.78-.94,1.68-1.47,2.7-1.6,1.02-.12,2.04.16,3.07.84,1.88.91,3.6,1.36,5.16,1.36,3.03,0,4.55-1.02,4.55-3.05,0-.84-.39-1.55-1.17-2.11-.5-.38-1.55-.91-3.14-1.6-.28-.09-.49-.17-.61-.23l-4.46-1.88c-2.06-.81-3.71-1.95-4.93-3.43-1.44-1.75-2.16-3.8-2.16-6.15,0-2.97,1.19-5.46,3.57-7.46,2.41-2.06,5.44-3.1,9.1-3.1,3.19,0,6.15.86,8.87,2.58,1.66,1.35,1.81,2.86.47,4.55-.69.88-1.48,1.39-2.37,1.55-.89.16-1.81-.05-2.75-.61-1.28-.59-2.69-.89-4.22-.89-1.31,0-2.34.25-3.07.75-.74.5-1.1,1.22-1.1,2.16,0,.81.44,1.52,1.31,2.11.59.38,1.75.91,3.47,1.6.22.09.39.16.52.19l4.36,1.74c4.6,1.85,6.9,5.04,6.9,9.57,0,3.03-1.16,5.58-3.47,7.65-2.5,2.19-5.79,3.28-9.85,3.28Z"/><path class="cls-2" d="m42.04,124.35c-2.5,0-3.75-1.25-3.75-3.75v-28.11c0-.91.28-1.64.84-2.21s1.3-.84,2.21-.84h3.61c.72,0,1.38.2,1.97.61.59.41,1.02.95,1.27,1.64l4.69,12.81c.31.88.73,2.24,1.27,4.08.28,1.03.5,1.8.66,2.3h.23c.25-.72.58-1.83.99-3.33.41-1.38.72-2.39.94-3.05l4.55-12.81c.22-.69.62-1.24,1.22-1.64.59-.41,1.25-.61,1.97-.61h4.6c.62,0,1.13.2,1.52.59.39.39.59.9.59,1.52v29c0,2.53-1.27,3.8-3.8,3.8s-3.85-1.27-3.85-3.8v-8.16c0-2.25.34-6.18,1.03-11.78.03-.16.05-.27.05-.33h-.19l-2.91,8.35-3.89,10.6c-.22.66-.61,1.18-1.17,1.57-.56.39-1.2.59-1.92.59h-.14c-.66,0-1.24-.18-1.76-.54-.52-.36-.9-.85-1.15-1.48l-3.99-10.75-2.82-8.35h-.19c0,.06.01.17.05.33.69,5.6,1.03,9.52,1.03,11.78v8.21c0,2.5-1.25,3.75-3.75,3.75Z"/><path class="cls-2" d="m78.59,124.35c-1.06,0-1.83-.31-2.3-.94-.47-.63-.53-1.45-.19-2.49l9.01-29.09c.25-.72.66-1.3,1.24-1.74.58-.44,1.24-.66,1.99-.66h5.07c.75,0,1.41.22,1.99.66.58.44.99,1.02,1.24,1.74l9.01,29.09c.34,1.03.28,1.86-.19,2.49-.47.63-1.24.94-2.3.94h-2.67c-.78,0-1.46-.23-2.04-.68-.58-.45-.96-1.06-1.15-1.81l-1.41-5.54h-10.32l-1.41,5.54c-.19.75-.57,1.35-1.15,1.81-.58.45-1.26.68-2.04.68h-2.39Zm8.59-14.5h7.13l-.75-2.96c-.34-1.22-.83-3.19-1.45-5.91-.59-2.41-1.03-4.18-1.31-5.3h-.19c-.09.38-.22.95-.37,1.74-.41,1.75-.72,3.07-.94,3.94-.09.41-.23.99-.42,1.74-.41,1.72-.72,2.99-.94,3.8l-.75,2.96Z"/><path class="cls-2" d="m114.63,124.35c-2.81,0-4.22-1.39-4.22-4.18v-27.68c0-.91.28-1.64.84-2.21s1.3-.84,2.21-.84h9.76c9.1,0,13.65,3.66,13.65,10.98,0,4.85-2,8.21-6.01,10.09l5.87,10.42c.59,1.03.7,1.86.33,2.49-.38.63-1.16.94-2.35.94h-3.29c-1.44,0-2.49-.64-3.14-1.92l-5.44-10.37h-4.04v8.12c0,2.78-1.39,4.18-4.18,4.18Zm4.18-18.91h3.75c4.07,0,6.1-1.67,6.1-5.02,0-1.6-.52-2.74-1.55-3.43-.97-.62-2.49-.94-4.55-.94h-3.75v9.38Z"/><path class="cls-2" d="m153.57,124.35c-2.82,0-4.22-1.39-4.22-4.18v-23.79h-5.96c-2.32,0-3.47-1.16-3.47-3.47s1.16-3.47,3.47-3.47h20.36c2.31,0,3.47,1.16,3.47,3.47s-1.16,3.47-3.47,3.47h-6.01v23.79c0,2.78-1.39,4.18-4.18,4.18Z"/><path class="cls-2" d="m198.15,125.01c-4.66,0-8.49-1.52-11.5-4.55-3.25-3.25-4.88-7.71-4.88-13.37s1.67-10.1,5.02-13.51c3.1-3.19,6.97-4.79,11.64-4.79,3.03,0,5.8.88,8.31,2.63.81.69,1.22,1.39,1.22,2.11s-.34,1.47-1.03,2.35c-1.53,1.88-3.3,2.13-5.3.75-.94-.44-1.96-.66-3.05-.66-2.35,0-4.27.95-5.77,2.86-1.63,2-2.44,4.66-2.44,7.98s.73,6.13,2.21,8.07c1.44,1.94,3.41,2.91,5.91,2.91,1.34,0,2.6-.31,3.75-.94,1.91-1.5,3.68-1.3,5.3.61,1.31,1.63,1.2,3.16-.33,4.6-2.57,1.97-5.58,2.96-9.06,2.96Z"/><path class="cls-2" d="m218.18,124.35c-2.79,0-4.18-1.38-4.18-4.13v-29.23c0-2.75,1.39-4.13,4.18-4.13s4.13,1.38,4.13,4.13v4.88l-.38,4.74c2.6-2.41,5.32-3.61,8.17-3.61,5.54,0,8.3,3.61,8.3,10.84v12.34c0,2.78-1.39,4.18-4.18,4.18s-4.18-1.39-4.18-4.18v-11.31c0-1.78-.25-3.03-.75-3.75-.47-.66-1.25-.99-2.35-.99-.88,0-1.67.2-2.39.61-.59.31-1.34.91-2.25,1.78v13.7c0,2.75-1.38,4.13-4.13,4.13Z"/><path class="cls-2" d="m249.06,93.95c-1.41,0-2.56-.4-3.45-1.2-.89-.8-1.34-1.83-1.34-3.1s.45-2.3,1.34-3.1c.89-.8,2.04-1.2,3.45-1.2s2.55.41,3.42,1.22c.88.78,1.31,1.81,1.31,3.1s-.45,2.28-1.34,3.07c-.89.8-2.03,1.2-3.4,1.2Zm0,30.41c-2.79,0-4.18-1.38-4.18-4.13v-18.44c0-2.75,1.39-4.13,4.18-4.13s4.13,1.38,4.13,4.13v18.44c0,2.75-1.38,4.13-4.13,4.13Z"/><path class="cls-2" d="m264.12,124.35c-2.79,0-4.18-1.38-4.18-4.13v-19.19c0-2.25,1.2-3.38,3.61-3.38,2.16,0,3.39.99,3.71,2.96l.05.38h.19c2.72-2.66,5.57-3.99,8.54-3.99,5.54,0,8.3,3.61,8.3,10.84v12.34c0,2.78-1.39,4.18-4.18,4.18s-4.18-1.39-4.18-4.18v-11.31c0-1.78-.25-3.03-.75-3.75-.47-.66-1.25-.99-2.35-.99-.88,0-1.67.2-2.39.61-.59.31-1.34.91-2.25,1.78v13.7c0,2.75-1.38,4.13-4.13,4.13Z"/><path class="cls-2" d="m302.87,125.01c-3.94,0-7.16-1.24-9.67-3.71-2.6-2.53-3.89-5.96-3.89-10.28s1.3-7.58,3.89-10.28c2.44-2.5,5.36-3.75,8.77-3.75,3.72,0,6.6,1.24,8.63,3.71,1.88,2.32,2.81,5.38,2.81,9.2,0,.84-.05,1.6-.14,2.25-.06.34-.27.65-.63.92-.36.27-.77.4-1.24.4h-14.03c.72,3.44,2.94,5.16,6.66,5.16.97,0,1.92-.14,2.86-.42.87-.41,1.68-.49,2.42-.26.73.23,1.34.77,1.81,1.62.87,1.6.53,2.85-1.03,3.75-2.28,1.13-4.69,1.69-7.23,1.69Zm-5.63-16.99h9.1c0-3.1-1.41-4.65-4.22-4.65-1.22,0-2.25.38-3.1,1.13-.91.81-1.5,1.99-1.78,3.52Z"/><path class="cls-2" d="m326.76,125.01c-2.6,0-5.19-.69-7.79-2.06-1.66-1.13-1.89-2.52-.7-4.18.62-.88,1.41-1.38,2.35-1.5.88-.09,1.78.16,2.72.75,1.22.56,2.42.84,3.61.84,2.09,0,3.14-.7,3.14-2.11,0-.63-.42-1.19-1.27-1.69-.5-.31-1.5-.75-3-1.31-.44-.19-.78-.33-1.03-.42-4.63-1.85-6.95-4.46-6.95-7.84,0-2.53.95-4.58,2.84-6.15,1.89-1.56,4.39-2.35,7.48-2.35,2.53,0,4.94.63,7.23,1.88.84.56,1.3,1.17,1.36,1.83.03.63-.28,1.38-.94,2.25-.59.78-1.31,1.24-2.13,1.36-.83.13-1.68-.06-2.56-.56-.97-.41-1.86-.61-2.67-.61-1.88,0-2.82.64-2.82,1.92,0,.63.41,1.17,1.22,1.64.5.28,1.49.67,2.96,1.17.47.16.81.28,1.03.38,2.13.81,3.72,1.71,4.79,2.67,1.5,1.41,2.25,3.19,2.25,5.35,0,2.57-.94,4.63-2.82,6.19-2,1.69-4.77,2.53-8.3,2.53Z"/><path class="cls-2" d="m354.77,125.01c-3.94,0-7.16-1.24-9.67-3.71-2.6-2.53-3.89-5.96-3.89-10.28s1.3-7.58,3.89-10.28c2.44-2.5,5.36-3.75,8.77-3.75,3.72,0,6.6,1.24,8.63,3.71,1.88,2.32,2.81,5.38,2.81,9.2,0,.84-.05,1.6-.14,2.25-.06.34-.27.65-.63.92-.36.27-.77.4-1.24.4h-14.03c.72,3.44,2.94,5.16,6.66,5.16.97,0,1.92-.14,2.86-.42.87-.41,1.68-.49,2.42-.26.73.23,1.34.77,1.81,1.62.87,1.6.53,2.85-1.03,3.75-2.28,1.13-4.69,1.69-7.23,1.69Zm-5.63-16.99h9.1c0-3.1-1.41-4.65-4.22-4.65-1.22,0-2.25.38-3.1,1.13-.91.81-1.5,1.99-1.78,3.52Z"/><path class="cls-2" d="m386.3,124.35c-2.81,0-4.22-1.39-4.22-4.18v-26.56c0-2.78,1.41-4.18,4.22-4.18s4.18,1.39,4.18,4.18v9.62h.14l8.77-12.25c.78-1.03,1.8-1.55,3.05-1.55h3.1c1.28,0,2.07.31,2.37.91.3.61.05,1.42-.73,2.42l-8.02,10.65,10.46,17.5c.62,1.03.76,1.86.4,2.49-.36.63-1.13.94-2.32.94h-3.1c-.63,0-1.23-.17-1.81-.52-.58-.34-1.02-.78-1.34-1.31l-7.18-12.48-3.8,5.16v4.97c0,2.78-1.39,4.18-4.18,4.18Z"/><path class="cls-2" d="m418.82,93.95c-1.41,0-2.56-.4-3.45-1.2-.89-.8-1.34-1.83-1.34-3.1s.45-2.3,1.34-3.1c.89-.8,2.04-1.2,3.45-1.2s2.55.41,3.42,1.22c.88.78,1.31,1.81,1.31,3.1s-.45,2.28-1.34,3.07c-.89.8-2.03,1.2-3.4,1.2Zm0,30.41c-2.79,0-4.18-1.38-4.18-4.13v-18.44c0-2.75,1.39-4.13,4.18-4.13s4.13,1.38,4.13,4.13v18.44c0,2.75-1.38,4.13-4.13,4.13Z"/><path class="cls-2" d="m439.27,125.01c-3.35,0-6.01-1.25-7.98-3.75-1.97-2.5-2.96-5.91-2.96-10.23s1.14-7.63,3.43-10.32c2.13-2.47,4.66-3.71,7.6-3.71,1.38,0,2.6.25,3.66.75.87.41,1.8,1.08,2.77,2.02l-.33-3.99v-4.74c0-2.78,1.41-4.18,4.22-4.18s4.18,1.39,4.18,4.18v29.94c0,1.1-.36,1.94-1.08,2.53-.69.56-1.61.84-2.77.84-.88,0-1.63-.2-2.25-.61-.66-.47-1.1-1.09-1.31-1.88v-.09h-.19c-2.16,2.16-4.49,3.24-6.99,3.24Zm2.21-6.85c1.69,0,3.02-.75,3.99-2.25v-10.51c-1.16-1.06-2.53-1.6-4.13-1.6-1.25,0-2.27.56-3.05,1.69-.91,1.28-1.36,3.08-1.36,5.4,0,4.85,1.52,7.27,4.55,7.27Z"/><path class="cls-2" d="m468.55,125.01c-2.6,0-5.19-.69-7.79-2.06-1.66-1.13-1.89-2.52-.7-4.18.62-.88,1.41-1.38,2.35-1.5.88-.09,1.78.16,2.72.75,1.22.56,2.42.84,3.61.84,2.09,0,3.14-.7,3.14-2.11,0-.63-.42-1.19-1.27-1.69-.5-.31-1.5-.75-3-1.31-.44-.19-.78-.33-1.03-.42-4.63-1.85-6.95-4.46-6.95-7.84,0-2.53.95-4.58,2.84-6.15,1.89-1.56,4.39-2.35,7.48-2.35,2.53,0,4.94.63,7.23,1.88.84.56,1.3,1.17,1.36,1.83.03.63-.28,1.38-.94,2.25-.59.78-1.31,1.24-2.13,1.36-.83.13-1.68-.06-2.56-.56-.97-.41-1.86-.61-2.67-.61-1.88,0-2.82.64-2.82,1.92,0,.63.41,1.17,1.22,1.64.5.28,1.49.67,2.96,1.17.47.16.81.28,1.03.38,2.13.81,3.72,1.71,4.79,2.67,1.5,1.41,2.25,3.19,2.25,5.35,0,2.57-.94,4.63-2.82,6.19-2,1.69-4.77,2.53-8.3,2.53Z"/><path class="cls-5" d="m19.14,130.01c-4.46,0-8.69-1.17-12.58-3.46l-.46-.31c-2.67-2-3.46-4.28-3.65-5.83-.19-1.54.02-3.89,2.07-6.4,1.1-1.32,2.39-2.27,3.81-2.84-.97-.74-1.85-1.57-2.61-2.48-2.2-2.68-3.31-5.82-3.31-9.34,0-4.44,1.85-8.34,5.35-11.29,3.3-2.83,7.45-4.27,12.32-4.27,4.14,0,8.02,1.13,11.54,3.36l.48.34c3.79,3.07,4.28,7.71,1.23,11.55-.89,1.13-1.85,1.9-2.78,2.42,4.49,2.83,6.92,7.21,6.92,12.63,0,4.44-1.78,8.38-5.14,11.38-3.47,3.03-7.89,4.55-13.18,4.55Z"/><path class="cls-5" d="m67.61,129.35c-3.69,0-6.54-1.72-7.92-4.55-.05.04-.11.08-.16.11-1.39.97-3.04,1.48-4.77,1.48h-.14c-1.68,0-3.28-.5-4.63-1.44-.04-.03-.08-.06-.13-.09-1.38,2.79-4.18,4.49-7.82,4.49-5.24,0-8.75-3.52-8.75-8.75v-28.11c0-2.25.8-4.23,2.31-5.75,1.5-1.51,3.49-2.3,5.74-2.3h3.61c1.71,0,3.37.51,4.79,1.48,1.46,1,2.54,2.4,3.15,4.06l2,5.45,1.9-5.34c.56-1.71,1.64-3.14,3.13-4.16,1.42-.97,3.08-1.48,4.8-1.48h4.6c1.94,0,3.74.73,5.06,2.05,1.32,1.32,2.05,3.12,2.05,5.06v29c0,5.26-3.54,8.8-8.8,8.8Zm-2.07-34.07h.87v-.84h-.57l-.3.84Zm-22.26,0h.89l-.31-.84h-.58v.84Z"/><path class="cls-5" d="m103.18,129.35h-2.67c-1.89,0-3.67-.6-5.12-1.74-1.45-1.13-2.46-2.7-2.92-4.53l-.45-1.75h-2.55l-.45,1.77c-.45,1.8-1.46,3.37-2.91,4.51-1.45,1.14-3.23,1.74-5.12,1.74h-2.39c-3.57,0-5.48-1.85-6.3-2.94-.84-1.12-2.08-3.53-.95-7l9.05-29.21c.57-1.64,1.59-3.05,2.94-4.08,1.45-1.1,3.18-1.67,5.01-1.67h5.07c1.83,0,3.56.58,5.01,1.67,1.36,1.03,2.38,2.44,2.95,4.08l.06.17,9,29.05c1.13,3.48-.11,5.88-.95,7.01-.82,1.1-2.74,2.94-6.3,2.94Z"/><path class="cls-5" d="m134.71,129.35h-3.29c-3.31,0-6.08-1.69-7.59-4.64l-.56-1.07c-1.2,3.56-4.33,5.72-8.64,5.72-5.6,0-9.22-3.6-9.22-9.18v-27.68c0-2.24.8-4.23,2.31-5.74,1.52-1.51,3.5-2.31,5.74-2.31h9.76c16.84,0,18.65,11.18,18.65,15.98s-1.55,8.68-4.44,11.55l3.66,6.5c2.03,3.53,1.03,6.23.25,7.52-.75,1.25-2.61,3.36-6.63,3.36Z"/><path class="cls-5" d="m153.57,129.35c-5.6,0-9.22-3.6-9.22-9.18v-18.79h-.96c-5.07,0-8.47-3.4-8.47-8.47s3.4-8.47,8.47-8.47h20.36c5.07,0,8.47,3.4,8.47,8.47s-3.4,8.47-8.47,8.47h-1.01v18.79c0,5.57-3.6,9.18-9.18,9.18Z"/><path class="cls-5" d="m198.15,130.01c-6.02,0-11.09-2.03-15.05-6.03-4.19-4.19-6.33-9.88-6.33-16.89s2.17-12.65,6.45-17.02c4.04-4.16,9.16-6.28,15.2-6.28,4.06,0,7.82,1.19,11.17,3.53l.37.28c2.47,2.09,2.99,4.38,2.99,5.93,0,1.83-.71,3.65-2.1,5.43l-.06.08c-2.34,2.86-4.97,3.46-6.76,3.46-1.62,0-3.21-.48-4.75-1.43-.21-.07-.45-.1-.71-.1-.69,0-1.21.16-1.84.95-.93,1.14-1.37,2.76-1.37,4.88,0,2.28.41,4.02,1.19,5.05.46.62.89.93,1.93.93.42,0,.78-.07,1.13-.22,1.6-1.14,3.3-1.71,5.06-1.71s4.3.58,6.67,3.36l.08.1c2.97,3.68,2.66,8.14-.8,11.39l-.37.32c-3.45,2.65-7.52,3.99-12.1,3.99Z"/><path class="cls-5" d="m234.23,129.35c-3.72,0-6.56-1.6-8.04-4.32-1.47,2.72-4.3,4.32-8.01,4.32-5.57,0-9.18-3.58-9.18-9.13v-29.23c0-5.55,3.6-9.13,9.18-9.13s9.13,3.58,9.13,9.13v1.26c.92-.17,1.85-.26,2.79-.26,3.12,0,13.31,1.14,13.31,15.84v12.34c0,5.57-3.6,9.18-9.18,9.18Z"/><path class="cls-5" d="m249.06,129.35c-5.57,0-9.18-3.58-9.18-9.13v-18.44c0-2.35.65-4.35,1.82-5.87-1.59-1.68-2.42-3.83-2.42-6.26,0-2.71,1.04-5.07,3-6.83,1.8-1.61,4.15-2.47,6.78-2.47s5.03.88,6.83,2.55c1.88,1.68,2.91,4.04,2.91,6.76,0,2.41-.83,4.55-2.42,6.23,1.17,1.52,1.81,3.52,1.81,5.87v18.44c0,5.55-3.58,9.13-9.13,9.13Zm-.02-40.23c-.14.18-.23.43-.24.56,0,.1.1.32.24.5.14-.18.23-.42.24-.54,0-.11-.1-.35-.24-.52Z"/><path class="cls-5" d="m280.16,129.35c-3.72,0-6.56-1.6-8.04-4.32-1.47,2.72-4.3,4.32-8.01,4.32-5.57,0-9.18-3.58-9.18-9.13v-19.19c0-5.01,3.46-8.38,8.61-8.38,1.91,0,3.6.47,4.97,1.33,2.39-1.32,4.9-1.99,7.51-1.99,3.12,0,13.31,1.14,13.31,15.84v12.34c0,5.57-3.6,9.18-9.18,9.18Z"/><path class="cls-5" d="m302.87,130.01c-5.29,0-9.72-1.73-13.18-5.15-3.56-3.48-5.38-8.14-5.38-13.83s1.78-10.1,5.29-13.75c3.38-3.46,7.65-5.28,12.37-5.28,5.19,0,9.51,1.91,12.49,5.53,2.63,3.25,3.95,7.4,3.95,12.38,0,1.08-.06,2.07-.19,2.96l-.03.17c-.2,1.12-.81,2.74-2.57,4.04-.04.03-.08.06-.12.09,2.18,4,1.01,8.2-2.91,10.48l-.3.16c-2.97,1.46-6.14,2.2-9.44,2.2Z"/><path class="cls-5" d="m326.76,130.01c-3.41,0-6.82-.89-10.13-2.65l-.46-.28c-2.46-1.67-3.28-3.71-3.53-5.13-.25-1.43-.19-3.64,1.57-6.1.6-.83,1.29-1.53,2.06-2.09-2.7-2.75-3.42-5.81-3.42-8.28,0-4.03,1.61-7.48,4.65-10,2.81-2.32,6.4-3.49,10.67-3.49,3.37,0,6.61.84,9.63,2.49l.37.22c2.68,1.78,3.42,3.98,3.57,5.51l.02.23c.09,1.82-.56,3.67-1.93,5.5-.31.41-.65.79-1,1.12.06.05.12.11.18.16,2.56,2.4,3.88,5.51,3.88,9.05,0,4.05-1.6,7.52-4.62,10.04-2.9,2.44-6.77,3.69-11.5,3.69Z"/><path class="cls-5" d="m354.77,130.01c-5.29,0-9.72-1.73-13.18-5.15-3.56-3.48-5.38-8.14-5.38-13.83s1.78-10.1,5.29-13.75c3.38-3.46,7.65-5.28,12.37-5.28,5.19,0,9.51,1.91,12.49,5.53,2.63,3.25,3.95,7.4,3.95,12.38,0,1.08-.06,2.07-.19,2.96l-.03.19c-.2,1.12-.81,2.73-2.57,4.03-.04.03-.08.06-.12.09,2.18,4,1.01,8.2-2.91,10.48l-.3.16c-2.97,1.46-6.14,2.2-9.44,2.2Z"/><path class="cls-5" d="m407.69,129.35h-3.1c-1.53,0-3-.41-4.36-1.22-1.31-.78-2.35-1.82-3.1-3.08l-1.8-3.12c-.68,4.56-4.08,7.42-9.05,7.42-5.6,0-9.22-3.6-9.22-9.18v-26.56c0-5.57,3.62-9.18,9.22-9.18,3.9,0,6.83,1.76,8.25,4.73l.86-1.2c1.72-2.28,4.22-3.53,7.04-3.53h3.1c4.39,0,6.19,2.33,6.87,3.73.68,1.39,1.41,4.23-1.28,7.68l-5.95,7.9,8.74,14.61c2.13,3.52,1.19,6.24.44,7.55-.73,1.28-2.58,3.45-6.66,3.45Zm-20.62-21.11v3.15l2.32-3.15h-2.32Z"/><path class="cls-5" d="m418.81,129.35c-5.57,0-9.18-3.58-9.18-9.13v-18.44c0-2.35.65-4.35,1.82-5.87-1.59-1.68-2.43-3.83-2.43-6.26,0-2.71,1.04-5.07,3.01-6.83,1.8-1.61,4.15-2.47,6.78-2.47s5,.87,6.79,2.52c1.93,1.74,2.95,4.09,2.95,6.79,0,2.41-.83,4.55-2.42,6.23,1.17,1.52,1.81,3.52,1.81,5.88v18.44c0,5.55-3.58,9.13-9.13,9.13Zm-.02-40.23c-.14.18-.23.43-.24.56,0,.1.1.32.24.5.14-.18.23-.41.24-.54,0-.11-.1-.35-.24-.52Z"/><path class="cls-5" d="m439.27,130.01c-4.87,0-8.99-1.96-11.91-5.66-2.67-3.4-4.03-7.88-4.03-13.32s1.55-9.95,4.61-13.56c3.09-3.59,7.03-5.47,11.41-5.47.37,0,.74.01,1.1.04v-1c0-5.57,3.62-9.18,9.22-9.18s9.18,3.6,9.18,9.18v29.94c0,2.58-1.03,4.85-2.9,6.39-1.12.92-3.04,1.99-5.95,1.99-1.55,0-2.98-.33-4.25-.99-2.04,1.1-4.21,1.65-6.5,1.65Z"/><path class="cls-5" d="m468.55,130.01c-3.41,0-6.82-.89-10.13-2.65l-.46-.28c-2.46-1.67-3.28-3.71-3.53-5.13-.25-1.43-.19-3.64,1.57-6.1.6-.83,1.29-1.53,2.06-2.09-2.7-2.75-3.42-5.81-3.42-8.28,0-4.03,1.61-7.48,4.65-10,2.81-2.32,6.4-3.49,10.67-3.49,3.37,0,6.61.84,9.63,2.49l.37.22c2.68,1.78,3.42,3.98,3.57,5.51l.02.23c.09,1.82-.56,3.67-1.93,5.5-.31.41-.65.79-1,1.12.06.05.12.11.18.16,2.56,2.4,3.88,5.51,3.88,9.05,0,4.05-1.6,7.52-4.62,10.04-2.9,2.44-6.78,3.69-11.5,3.69Z"/><path class="cls-2" d="m19.29,125.39c-3.57,0-6.91-.92-10.04-2.77-2-1.5-2.24-3.19-.7-5.07.78-.94,1.68-1.47,2.7-1.6,1.02-.12,2.04.16,3.07.84,1.88.91,3.6,1.36,5.16,1.36,3.03,0,4.55-1.02,4.55-3.05,0-.84-.39-1.55-1.17-2.11-.5-.38-1.55-.91-3.14-1.6-.28-.09-.49-.17-.61-.23l-4.46-1.88c-2.06-.81-3.71-1.95-4.93-3.43-1.44-1.75-2.16-3.8-2.16-6.15,0-2.97,1.19-5.46,3.57-7.46,2.41-2.06,5.44-3.1,9.1-3.1,3.19,0,6.15.86,8.87,2.58,1.66,1.35,1.81,2.86.47,4.55-.69.88-1.48,1.39-2.37,1.55-.89.16-1.81-.05-2.75-.61-1.28-.59-2.69-.89-4.22-.89-1.31,0-2.34.25-3.07.75-.74.5-1.1,1.22-1.1,2.16,0,.81.44,1.52,1.31,2.11.59.38,1.75.91,3.47,1.6.22.09.39.16.52.19l4.36,1.74c4.6,1.85,6.9,5.04,6.9,9.57,0,3.03-1.16,5.58-3.47,7.65-2.5,2.19-5.79,3.28-9.85,3.28Z"/><path class="cls-2" d="m42.18,124.73c-2.5,0-3.75-1.25-3.75-3.75v-28.11c0-.91.28-1.64.84-2.21s1.3-.84,2.21-.84h3.61c.72,0,1.38.2,1.97.61.59.41,1.02.95,1.27,1.64l4.69,12.81c.31.88.73,2.24,1.27,4.08.28,1.03.5,1.8.66,2.3h.23c.25-.72.58-1.83.99-3.33.41-1.38.72-2.39.94-3.05l4.55-12.81c.22-.69.62-1.24,1.22-1.64.59-.41,1.25-.61,1.97-.61h4.6c.62,0,1.13.2,1.52.59.39.39.59.9.59,1.52v29c0,2.53-1.27,3.8-3.8,3.8s-3.85-1.27-3.85-3.8v-8.16c0-2.25.34-6.18,1.03-11.78.03-.16.05-.27.05-.33h-.19l-2.91,8.35-3.89,10.6c-.22.66-.61,1.18-1.17,1.57-.56.39-1.21.59-1.92.59h-.14c-.66,0-1.24-.18-1.76-.54-.52-.36-.9-.85-1.15-1.48l-3.99-10.75-2.82-8.35h-.19c0,.06.01.17.05.33.69,5.6,1.03,9.52,1.03,11.78v8.21c0,2.5-1.25,3.75-3.75,3.75Z"/><path class="cls-2" d="m78.73,124.73c-1.06,0-1.83-.31-2.3-.94-.47-.63-.53-1.45-.19-2.49l9.01-29.09c.25-.72.66-1.3,1.24-1.74.58-.44,1.24-.66,1.99-.66h5.07c.75,0,1.41.22,1.99.66.58.44.99,1.02,1.24,1.74l9.01,29.09c.34,1.03.28,1.86-.19,2.49-.47.63-1.24.94-2.3.94h-2.67c-.78,0-1.46-.23-2.04-.68-.58-.45-.96-1.06-1.15-1.81l-1.41-5.54h-10.32l-1.41,5.54c-.19.75-.57,1.35-1.15,1.81-.58.45-1.26.68-2.04.68h-2.39Zm8.59-14.5h7.13l-.75-2.96c-.34-1.22-.83-3.19-1.45-5.91-.59-2.41-1.03-4.18-1.31-5.3h-.19c-.09.38-.22.95-.37,1.74-.41,1.75-.72,3.07-.94,3.94-.09.41-.23.99-.42,1.74-.41,1.72-.72,2.99-.94,3.8l-.75,2.96Z"/><path class="cls-2" d="m114.77,124.73c-2.81,0-4.22-1.39-4.22-4.18v-27.68c0-.91.28-1.64.84-2.21.56-.56,1.3-.84,2.21-.84h9.76c9.1,0,13.65,3.66,13.65,10.98,0,4.85-2,8.21-6.01,10.09l5.87,10.42c.59,1.03.7,1.86.33,2.49-.37.63-1.16.94-2.35.94h-3.29c-1.44,0-2.49-.64-3.14-1.92l-5.44-10.37h-4.04v8.12c0,2.78-1.39,4.18-4.18,4.18Zm4.18-18.91h3.75c4.07,0,6.1-1.67,6.1-5.02,0-1.6-.52-2.74-1.55-3.43-.97-.62-2.49-.94-4.55-.94h-3.75v9.38Z"/><path class="cls-2" d="m153.71,124.73c-2.82,0-4.22-1.39-4.22-4.18v-23.79h-5.96c-2.32,0-3.47-1.16-3.47-3.47s1.16-3.47,3.47-3.47h20.36c2.31,0,3.47,1.16,3.47,3.47s-1.16,3.47-3.47,3.47h-6.01v23.79c0,2.78-1.39,4.18-4.18,4.18Z"/><path class="cls-2" d="m198.29,125.39c-4.66,0-8.49-1.52-11.5-4.55-3.25-3.25-4.88-7.71-4.88-13.37s1.67-10.1,5.02-13.51c3.1-3.19,6.97-4.79,11.64-4.79,3.03,0,5.8.88,8.31,2.63.81.69,1.22,1.39,1.22,2.11s-.34,1.47-1.03,2.35c-1.53,1.88-3.3,2.13-5.3.75-.94-.44-1.96-.66-3.05-.66-2.35,0-4.27.95-5.77,2.86-1.63,2-2.44,4.66-2.44,7.98s.73,6.13,2.21,8.07c1.44,1.94,3.41,2.91,5.91,2.91,1.34,0,2.6-.31,3.75-.94,1.91-1.5,3.68-1.3,5.3.61,1.31,1.63,1.2,3.16-.33,4.6-2.57,1.97-5.58,2.96-9.06,2.96Z"/><path class="cls-2" d="m218.32,124.73c-2.79,0-4.18-1.38-4.18-4.13v-29.23c0-2.75,1.39-4.13,4.18-4.13s4.13,1.38,4.13,4.13v4.88l-.38,4.74c2.6-2.41,5.32-3.61,8.16-3.61,5.54,0,8.3,3.61,8.3,10.84v12.34c0,2.78-1.39,4.18-4.18,4.18s-4.18-1.39-4.18-4.18v-11.31c0-1.78-.25-3.03-.75-3.75-.47-.66-1.25-.99-2.35-.99-.88,0-1.67.2-2.39.61-.59.31-1.34.91-2.25,1.78v13.7c0,2.75-1.38,4.13-4.13,4.13Z"/><path class="cls-2" d="m249.2,94.33c-1.41,0-2.56-.4-3.45-1.2-.89-.8-1.34-1.83-1.34-3.1s.45-2.3,1.34-3.1c.89-.8,2.04-1.2,3.45-1.2s2.55.41,3.42,1.22c.88.78,1.31,1.81,1.31,3.1s-.45,2.28-1.34,3.07c-.89.8-2.03,1.2-3.4,1.2Zm0,30.41c-2.79,0-4.18-1.38-4.18-4.13v-18.44c0-2.75,1.39-4.13,4.18-4.13s4.13,1.38,4.13,4.13v18.44c0,2.75-1.38,4.13-4.13,4.13Z"/><path class="cls-2" d="m264.26,124.73c-2.79,0-4.18-1.38-4.18-4.13v-19.19c0-2.25,1.2-3.38,3.61-3.38,2.16,0,3.39.99,3.71,2.96l.05.38h.19c2.72-2.66,5.57-3.99,8.54-3.99,5.54,0,8.3,3.61,8.3,10.84v12.34c0,2.78-1.39,4.18-4.18,4.18s-4.18-1.39-4.18-4.18v-11.31c0-1.78-.25-3.03-.75-3.75-.47-.66-1.25-.99-2.35-.99-.88,0-1.67.2-2.39.61-.59.31-1.34.91-2.25,1.78v13.7c0,2.75-1.38,4.13-4.13,4.13Z"/><path class="cls-2" d="m303.02,125.39c-3.94,0-7.16-1.24-9.67-3.71-2.6-2.53-3.89-5.96-3.89-10.28s1.3-7.59,3.89-10.28c2.44-2.5,5.36-3.75,8.77-3.75,3.72,0,6.6,1.24,8.63,3.71,1.88,2.32,2.81,5.38,2.81,9.2,0,.84-.05,1.6-.14,2.25-.06.34-.27.65-.63.92-.36.27-.77.4-1.24.4h-14.03c.72,3.44,2.94,5.16,6.66,5.16.97,0,1.92-.14,2.86-.42.87-.41,1.68-.49,2.42-.26.73.23,1.34.77,1.81,1.62.87,1.6.53,2.85-1.03,3.75-2.28,1.13-4.69,1.69-7.23,1.69Zm-5.63-16.99h9.1c0-3.1-1.41-4.65-4.22-4.65-1.22,0-2.25.38-3.1,1.13-.91.81-1.5,1.99-1.78,3.52Z"/><path class="cls-2" d="m326.9,125.39c-2.6,0-5.19-.69-7.79-2.06-1.66-1.13-1.89-2.52-.7-4.18.62-.88,1.41-1.38,2.35-1.5.88-.09,1.78.16,2.72.75,1.22.56,2.42.84,3.61.84,2.09,0,3.14-.7,3.14-2.11,0-.63-.42-1.19-1.27-1.69-.5-.31-1.5-.75-3-1.31-.44-.19-.78-.33-1.03-.42-4.63-1.85-6.95-4.46-6.95-7.84,0-2.53.95-4.58,2.84-6.15,1.89-1.56,4.39-2.35,7.48-2.35,2.53,0,4.94.63,7.23,1.88.84.56,1.3,1.17,1.36,1.83.03.63-.28,1.38-.94,2.25-.59.78-1.31,1.24-2.13,1.36-.83.13-1.68-.06-2.56-.56-.97-.41-1.86-.61-2.67-.61-1.88,0-2.82.64-2.82,1.92,0,.63.41,1.17,1.22,1.64.5.28,1.49.67,2.96,1.17.47.16.81.28,1.03.38,2.13.81,3.72,1.71,4.79,2.67,1.5,1.41,2.25,3.19,2.25,5.35,0,2.56-.94,4.63-2.82,6.19-2,1.69-4.77,2.53-8.3,2.53Z"/><path class="cls-2" d="m354.91,125.39c-3.94,0-7.16-1.24-9.67-3.71-2.6-2.53-3.89-5.96-3.89-10.28s1.3-7.59,3.89-10.28c2.44-2.5,5.36-3.75,8.77-3.75,3.72,0,6.6,1.24,8.63,3.71,1.88,2.32,2.81,5.38,2.81,9.2,0,.84-.05,1.6-.14,2.25-.06.34-.27.65-.63.92-.36.27-.77.4-1.24.4h-14.03c.72,3.44,2.94,5.16,6.66,5.16.97,0,1.92-.14,2.86-.42.87-.41,1.68-.49,2.42-.26.73.23,1.34.77,1.81,1.62.87,1.6.53,2.85-1.03,3.75-2.28,1.13-4.69,1.69-7.23,1.69Zm-5.63-16.99h9.1c0-3.1-1.41-4.65-4.22-4.65-1.22,0-2.25.38-3.1,1.13-.91.81-1.5,1.99-1.78,3.52Z"/><path class="cls-2" d="m386.44,124.73c-2.81,0-4.22-1.39-4.22-4.18v-26.56c0-2.78,1.41-4.18,4.22-4.18s4.18,1.39,4.18,4.18v9.62h.14l8.77-12.25c.78-1.03,1.8-1.55,3.05-1.55h3.1c1.28,0,2.07.31,2.37.91.3.61.05,1.42-.73,2.42l-8.02,10.65,10.46,17.5c.62,1.03.76,1.86.4,2.49-.36.63-1.13.94-2.32.94h-3.1c-.63,0-1.23-.17-1.81-.52-.58-.34-1.02-.78-1.34-1.31l-7.18-12.48-3.8,5.16v4.97c0,2.78-1.39,4.18-4.18,4.18Z"/><path class="cls-2" d="m418.96,94.33c-1.41,0-2.56-.4-3.45-1.2-.89-.8-1.34-1.83-1.34-3.1s.45-2.3,1.34-3.1c.89-.8,2.04-1.2,3.45-1.2s2.55.41,3.42,1.22c.88.78,1.31,1.81,1.31,3.1s-.45,2.28-1.34,3.07c-.89.8-2.03,1.2-3.4,1.2Zm0,30.41c-2.79,0-4.18-1.38-4.18-4.13v-18.44c0-2.75,1.39-4.13,4.18-4.13s4.13,1.38,4.13,4.13v18.44c0,2.75-1.38,4.13-4.13,4.13Z"/><path class="cls-2" d="m439.42,125.39c-3.35,0-6.01-1.25-7.98-3.75-1.97-2.5-2.96-5.91-2.96-10.23s1.14-7.63,3.43-10.32c2.13-2.47,4.66-3.71,7.6-3.71,1.38,0,2.6.25,3.66.75.87.41,1.8,1.08,2.77,2.02l-.33-3.99v-4.74c0-2.78,1.41-4.18,4.22-4.18s4.18,1.39,4.18,4.18v29.94c0,1.1-.36,1.94-1.08,2.53-.69.56-1.61.84-2.77.84-.88,0-1.63-.2-2.25-.61-.66-.47-1.1-1.09-1.31-1.88v-.09h-.19c-2.16,2.16-4.49,3.24-6.99,3.24Zm2.21-6.85c1.69,0,3.02-.75,3.99-2.25v-10.51c-1.16-1.06-2.53-1.6-4.13-1.6-1.25,0-2.27.56-3.05,1.69-.91,1.28-1.36,3.08-1.36,5.4,0,4.85,1.52,7.27,4.55,7.27Z"/><path class="cls-2" d="m468.69,125.39c-2.6,0-5.19-.69-7.79-2.06-1.66-1.13-1.89-2.52-.7-4.18.62-.88,1.41-1.38,2.35-1.5.88-.09,1.78.16,2.72.75,1.22.56,2.42.84,3.61.84,2.09,0,3.14-.7,3.14-2.11,0-.63-.42-1.19-1.27-1.69-.5-.31-1.5-.75-3-1.31-.44-.19-.78-.33-1.03-.42-4.63-1.85-6.95-4.46-6.95-7.84,0-2.53.95-4.58,2.84-6.15,1.89-1.56,4.39-2.35,7.48-2.35,2.53,0,4.94.63,7.23,1.88.84.56,1.3,1.17,1.36,1.83.03.63-.28,1.38-.94,2.25-.59.78-1.31,1.24-2.13,1.36-.83.13-1.68-.06-2.56-.56-.97-.41-1.86-.61-2.67-.61-1.88,0-2.82.64-2.82,1.92,0,.63.41,1.17,1.22,1.64.5.28,1.49.67,2.96,1.17.47.16.81.28,1.03.38,2.13.81,3.72,1.71,4.79,2.67,1.5,1.41,2.25,3.19,2.25,5.35,0,2.56-.94,4.63-2.82,6.19-2,1.69-4.77,2.53-8.3,2.53Z"/><path class="cls-5" d="m60.77,73.33H11.18c-5.41,0-8.91-3.5-8.91-8.91s3.5-8.98,8.91-8.98h.18c-1.54-1.54-2.41-3.76-2.41-6.45,0-4.46,2.41-7.59,6.31-8.5-.08-.08-.16-.15-.24-.23-.35-.35-.66-.72-.94-1.11-2.03.97-4.02,1.31-5.88.98-2.18-.38-4.14-1.66-5.81-3.8-.03-.04-.06-.07-.08-.11C.16,33.28-.49,30.5.36,27.94c.79-2.37,2.73-4.21,5.94-5.62,2.49-1.25,4.93-2.68,7.3-4.29-1.35-1.56-2.11-3.69-2.11-6.23,0-5.54,3.58-9.11,9.12-9.11h17.42c3.3,0,6.06,1.32,7.98,3.83,4.43,5.68,10.45,10.5,17.85,14.3,3.29,1.45,5.45,3.25,6.57,5.5.84,1.68,1.78,5.13-1.31,9.5-.02.03-.04.06-.06.09-1.75,2.36-3.85,3.78-6.24,4.22-.05,0-.1.02-.16.03-1.62.24-3.34.03-5.13-.62-.29.47-.6.85-.9,1.16,3.49,1.11,5.6,4.13,5.6,8.31,0,2.7-.87,4.91-2.41,6.45h.94c5.41,0,8.91,3.52,8.91,8.98s-3.5,8.91-8.91,8.91m-29.5-9h8.44c-1.99-.46-3.48-2.25-3.48-4.39v-6.61c0-2.03,1.34-3.74,3.18-4.31-1.84-.56-3.18-2.28-3.18-4.3v-6.41c0-1.96,1.26-3.63,3.01-4.25h-7.49c1.75.62,3.01,2.28,3.01,4.25v6.41c0,2.03-1.34,3.74-3.18,4.3,1.84.56,3.18,2.28,3.18,4.31v6.61c0,2.14-1.49,3.92-3.48,4.39m28.59-33.6c.72.37,1.15.48,1.35.5.08-.07.3-.26.6-.66.13-.19.23-.35.3-.48-.3-.24-.89-.62-1.95-1.08-.09-.04-.18-.08-.27-.13-8.63-4.41-15.69-10.09-20.99-16.87-.16-.2-.26-.34-.86-.34h-17.42s-.08,0-.12,0c0,.04,0,.07,0,.11s0,.08,0,.11c.04,0,.08,0,.12,0h2.48c1.88,0,3.56,1.17,4.22,2.93.51,1.38.31,2.89-.48,4.08,1.97-1.81,3.75-3.63,5.33-5.46.85-.98,2.09-1.55,3.4-1.55s2.61.56,3.46,1.54c3.8,4.37,7.88,8.23,12.1,11.47,1.41,1.03,2.07,2.15,2.33,3.15,1.08-.15,2.2.09,3.13.71.32.21.99.63,2.37,1.43.35.19.66.37.91.52m-50.32.12c.12.15.21.25.29.33.16-.06.39-.15.71-.33.52-.27,1.44-.8,3.19-1.92.55-.35.96-.57,1.22-.71.55-.28,1.15-.44,1.75-.47.32-.72.82-1.36,1.49-1.84.9-.65,1.78-1.31,2.64-1.96-3.41,2.48-6.95,4.65-10.6,6.47-.08.04-.15.07-.23.11-.2.09-.37.17-.52.24.02.03.04.05.06.08m23.9-5.78h4.17c-.69-.67-1.37-1.36-2.04-2.06-.69.69-1.4,1.38-2.13,2.06"/><path class="cls-3" d="m11.17,68.26c-2.94,0-4.41-1.47-4.41-4.41s1.47-4.48,4.41-4.48h19.08v-6.61h-12.54c-2.85,0-4.27-1.45-4.27-4.34s1.42-4.27,4.27-4.27h12.54v-6.41h-8.82c-1.33,0-2.41-.41-3.24-1.24-.83-.83-1.24-1.91-1.24-3.24v-1.58c-.18.09-.46.25-.83.48-1.51.97-2.66,1.65-3.44,2.07-1.42.78-2.66,1.08-3.72.89-1.06-.18-2.07-.89-3.03-2.13-1.24-1.7-1.68-3.1-1.31-4.2.37-1.1,1.56-2.09,3.58-2.96,5.23-2.62,10.19-5.95,14.88-9.99h-2.48c-3.08,0-4.62-1.54-4.62-4.62s1.54-4.61,4.62-4.61h17.43c1.88,0,3.35.69,4.41,2.07,4.91,6.29,11.41,11.5,19.49,15.64,2.34,1.01,3.83,2.16,4.48,3.44.69,1.38.37,3.01-.96,4.89-1.06,1.42-2.2,2.25-3.44,2.48-1.24.18-2.69-.16-4.34-1.03-.23-.14-.55-.32-.96-.55-1.19-.69-2.07-1.22-2.62-1.58v3.1c0,.83-.24,1.48-.72,1.96-.48.48-1.13.72-1.96.72h-10.68v6.41h12.74c2.85,0,4.27,1.42,4.27,4.27s-1.42,4.34-4.27,4.34h-12.74v6.61h20.04c2.94,0,4.41,1.49,4.41,4.48s-1.47,4.41-4.41,4.41H11.17Zm9.64-39.26h27.34c1.15,0,1.24-.34.28-1.03-4.5-3.44-8.77-7.48-12.81-12.12h-.07c-3.9,4.5-8.82,8.88-14.74,13.15"/><path class="cls-5" d="m107.53,74.64s-.09,0-.13,0c-2.49-.07-4.64-.77-6.38-2.06-1.86-1.38-3.08-3.34-3.54-5.67-.02-.06-.04-.12-.07-.19-.8-1.68-1.04-3.12-.98-4.31-2.62,3.34-5.7,6.28-9.24,8.78-.08.06-.17.12-.26.17-8.09,4.93-12.87.78-14.55-1.24-.01-.01-.03-.03-.04-.05-2.48-3.06-2.92-6.73-1.22-10.08,1.1-2.24,3.03-4.21,5.89-6.01,4.08-3.33,6.86-7.53,8.51-12.81.86-2.85,1.5-6.77,1.91-11.66h-9.25c-5.62,0-9.25-3.66-9.25-9.32s3.63-9.25,9.25-9.25h16.3v-1.35c0-5.92,3.7-9.6,9.67-9.6s9.6,3.68,9.6,9.6v1.35h17.2c5.62,0,9.25,3.63,9.25,9.25s-3.63,9.32-9.25,9.32h-2.36c.98.66,1.8,1.56,2.43,2.67,1.19,2.17,1.63,5.06,1.39,9.14-.62,8.25-1.35,14.22-2.23,18.31-.89,4.36-2.19,7.48-3.97,9.52-1.52,1.71-3.28,3-5.25,3.86-.04.02-.08.03-.12.05-1.52.61-3.35,1.04-5.58,1.32-.93.11-2.68.24-7.72.24m-1.23-9.54c.03.18.06.23.06.24.24.17.69.28,1.24.3,4.39,0,6-.11,6.57-.18,1.69-.21,2.71-.5,3.26-.72.75-.33,1.41-.83,2.01-1.52.23-.26,1.12-1.52,1.92-5.43.79-3.68,1.48-9.41,2.06-17.07.11-1.86,0-2.96-.11-3.56h-20.75c-1.3,0-2.54-.57-3.4-1.55-.86-.99-1.24-2.29-1.06-3.58.3-2.1.52-4.53.65-7.23.12-2.4,2.09-4.28,4.5-4.28h27.69c.09,0,.17,0,.24,0,0-.09,0-.19,0-.31,0-.09,0-.17,0-.25-.07,0-.15,0-.25,0h-21.7c-2.49,0-4.5-2.01-4.5-4.5v-5.85c0-.25-.02-.43-.04-.56-.28-.04-.93-.03-1.19,0-.02.13-.04.31-.04.55v5.85c0,2.49-2.01,4.5-4.5,4.5h-20.8c-.09,0-.17,0-.25,0,0,.07,0,.15,0,.25,0,.12,0,.23,0,.31.07,0,.15,0,.24,0h14.05c1.23,0,2.41.51,3.26,1.4.85.89,1.3,2.09,1.24,3.32-.39,7.97-1.24,14.04-2.59,18.57-2.2,7.09-6.13,12.92-11.69,17.37-.15.12-.3.23-.47.33-2.03,1.24-2.62,2.13-2.77,2.46-.02.03-.03.06-.05.1,0,.02-.02.04-.02.05.03.06.09.15.19.27.22.25.65.65,2.8-.63,7.43-5.31,12.19-12.74,14.55-22.69.48-2.03,2.29-3.46,4.38-3.46h16.67c1.25,0,2.45.52,3.3,1.44.85.92,1.28,2.15,1.19,3.4-1.09,14.51-2.78,18.68-5.14,20.71-.06.05-.13.11-.2.16-1.58,1.21-3.66,1.82-6.18,1.82-1.66,0-3.11-.01-4.4-.04m-1.8-18.49c-1.13,3.72-2.6,7.17-4.4,10.33,1.4-.67,3.14-.97,5.23-.87,1.41.04,3.24.06,5.37.06.17,0,.31,0,.43-.01.37-1,1.05-3.54,1.68-9.51h-8.31Z"/><path class="cls-6" d="m75.85,66.68c-1.38-1.7-1.61-3.44-.69-5.23.73-1.52,2.23-2.96,4.48-4.34,4.87-3.9,8.27-8.95,10.19-15.15,1.24-4.13,2.04-9.96,2.41-17.5h-14.05c-3.17,0-4.75-1.61-4.75-4.82s1.58-4.75,4.75-4.75h20.8v-5.85c0-3.4,1.72-5.1,5.17-5.1s5.09,1.7,5.09,5.1v5.85h21.7c3.17,0,4.75,1.58,4.75,4.75s-1.58,4.82-4.75,4.82h-27.69c-.14,2.85-.37,5.4-.69,7.65h21.28c1.51,0,2.59.58,3.24,1.72.73,1.33,1.01,3.56.83,6.68-.6,7.9-1.31,13.78-2.14,17.63-.74,3.58-1.72,6.08-2.96,7.51-1.06,1.19-2.27,2.09-3.65,2.69-1.15.46-2.64.8-4.48,1.03-1.2.14-3.58.21-7.16.21-1.56-.05-2.84-.44-3.82-1.17-.99-.73-1.6-1.75-1.82-3.03-.05-.23-.16-.58-.34-1.03-.73-1.47-.8-2.58-.21-3.34.6-.76,1.86-1.09,3.79-1,1.56.05,3.42.07,5.58.07,1.51,0,2.66-.3,3.44-.89,1.61-1.38,2.8-7.25,3.58-17.63h-16.67c-2.62,11.02-8.11,19.49-16.46,25.42-3.77,2.29-6.68,2.2-8.75-.28"/><path class="cls-5" d="m154.3,74.64c-5.58,0-9.18-3.6-9.18-9.18l-.05-23.4c-.14-.01-.28-.03-.42-.05-2.78-.42-5.01-2.36-6.61-5.76-2.32-4.71-1.67-9.36,1.87-13.03,3.79-4.32,7.14-9.52,9.95-15.47,2.27-5.17,6.85-7.24,11.98-5.42,2.82.95,4.75,2.55,5.74,4.76.52,1.16.94,2.92.45,5.19h6.03v-1.36c0-5.88,3.65-9.53,9.53-9.53s9.53,3.65,9.53,9.53v1.36h7.07c5.58,0,9.18,3.6,9.18,9.18,0,4.47-2.28,7.68-6.01,8.81.69,1.79.8,3.87.35,6.23-1.24,6.21-2.58,11.96-4.01,17.17h1.72c5.58,0,9.18,3.6,9.18,9.18s-3.6,9.25-9.18,9.25h-34.51c-1.89,0-3.55-.41-4.92-1.18-1.56,2.36-4.25,3.73-7.69,3.73m-.18-9c.11,0,.25,0,.36,0,0-.05,0-.11,0-.18V21.03c0-.77.2-1.53.58-2.21,1.34-2.38,2.68-5.05,3.98-7.95-.03-.01-.07-.02-.1-.04-.03-.01-.07-.02-.1-.03-.16-.06-.29-.09-.38-.11-.09.13-.22.34-.37.69-.02.04-.04.09-.06.13-3.2,6.78-7.04,12.75-11.44,17.73-.05.06-.1.12-.16.17-.71.73-1.08,1.28-.28,2.92,0,0,0,0,0,0,.03-.03.06-.06.09-.09,1.25-1.36,3.21-1.82,4.94-1.15,1.73.67,2.87,2.33,2.87,4.19l.07,30.17c0,.07,0,.13,0,.19m12.61-2.55c.05,0,.11,0,.18,0h34.51c.06,0,.12,0,.18,0,0-.07,0-.15,0-.25,0-.07,0-.12,0-.18-.05,0-.11,0-.18,0h-7.71c-1.43,0-2.78-.68-3.62-1.83-.85-1.15-1.1-2.63-.68-4,1.97-6.35,3.81-13.78,5.46-22.07.1-.54.11-.88.1-1.08-.12-.04-.31-.09-.58-.13-.34-.06-.57-.07-.74-.07-.05.16-.11.42-.15.8-1.23,9.27-2.92,17.69-5.04,25.12-.55,1.93-2.32,3.27-4.33,3.27h-17.22c-.07,0-.12,0-.18,0,0,.06,0,.11,0,.18,0,.09,0,.18,0,.25m-3.25-33.4v24.49c.97-.32,2.05-.5,3.21-.52-.1-.52-.18-1.09-.21-1.71-.23-2.39-.5-4.84-.8-7.29-.48-3.69-.97-6.77-1.45-9.12-.52-2.3-.25-4.1.25-5.44-.35-.12-.68-.26-1-.42m9.56,4.06c.53,2.59,1.04,5.79,1.56,9.78.32,2.57.6,5.11.84,7.6.11-.02.24-.04.38-.07.16-.03.29-.07.41-.1-.63-5.09-1.62-10.87-2.96-17.2,0-.02,0-.03-.01-.05-.04,0-.08.01-.12.02-.03,0-.06,0-.09.02m8.69-3.05c.1.31.2.64.28.97.01.05.02.09.03.14.58,2.71,1.09,5.32,1.54,7.84.35-2.1.67-4.26.96-6.46.1-.89.27-1.72.51-2.49h-3.33Zm-13.84-9c.05,0,.11,0,.18,0h32.1c.07,0,.12,0,.18,0,0-.07,0-.15,0-.25,0-.06,0-.12,0-.18-.05,0-.11,0-.18,0h-11.57c-2.49,0-4.5-2.02-4.5-4.5v-5.86c0-.21-.01-.38-.03-.5-.24-.03-.76-.03-1,0-.01.12-.03.29-.03.5v5.86c0,2.48-2.01,4.5-4.5,4.5h-10.47c-.07,0-.13,0-.18,0,0,.05,0,.11,0,.18,0,.09,0,.18,0,.25"/><path class="cls-9" d="m154.3,69.57c-3.12,0-4.68-1.56-4.68-4.68l-.07-30.17c-3.08,3.35-5.56,3.03-7.44-.96-1.51-3.08-1.15-5.76,1.1-8.06,4.13-4.68,7.71-10.24,10.75-16.67,1.33-3.08,3.47-4.09,6.4-3.03,3.17,1.06,4.11,3.08,2.83,6.06-1.38,3.08-2.78,5.88-4.2,8.4v44.43c0,3.12-1.56,4.68-4.68,4.68m12.61-2.55c-3.12,0-4.68-1.58-4.68-4.75s1.56-4.68,4.68-4.68h17.22c2.07-7.25,3.7-15.38,4.89-24.38.41-3.72,2.43-5.28,6.06-4.68,3.54.55,4.93,2.73,4.2,6.54-1.7,8.5-3.56,16-5.58,22.52h7.71c3.12,0,4.68,1.56,4.68,4.68s-1.56,4.75-4.68,4.75h-34.51Zm1.17-41.4c-3.12,0-4.68-1.58-4.68-4.75s1.56-4.68,4.68-4.68h10.47v-5.86c0-3.35,1.67-5.03,5.03-5.03s5.03,1.68,5.03,5.03v5.86h11.57c3.12,0,4.68,1.56,4.68,4.68s-1.56,4.75-4.68,4.75h-32.1Zm4.48,29c-.96-.6-1.49-1.79-1.58-3.58-.23-2.43-.51-4.93-.83-7.51-.5-3.86-1.01-7.02-1.51-9.5-.69-2.98.55-4.75,3.72-5.3,2.85-.5,4.61.64,5.3,3.44,1.42,6.71,2.46,12.74,3.1,18.11.09,1.42-.21,2.48-.9,3.17-.6.64-1.65,1.13-3.17,1.45-1.88.37-3.26.28-4.13-.27"/><path class="cls-5" d="m379.94,74.85c-6,0-9.73-3.73-9.73-9.73v-11.34h-14.1c-2.52,0-4.74-.88-6.42-2.56-1.67-1.67-2.56-3.9-2.56-6.42v-23.62c0-2.52.88-4.75,2.56-6.42,1.68-1.67,3.9-2.56,6.42-2.56h14.1v-2.04c0-6,3.73-9.73,9.73-9.73s9.74,3.73,9.74,9.73v2.04h14.65c2.53,0,4.74.88,6.42,2.56,1.68,1.68,2.56,3.9,2.56,6.42v23.62c0,2.53-.88,4.75-2.56,6.42-1.68,1.67-3.9,2.56-6.42,2.56h-14.65v11.34c0,6-3.73,9.73-9.74,9.73m-.68-9.05c.14.02.36.05.68.05s.54-.03.68-.05c.03-.14.05-.36.05-.68v-15.84c0-2.49,2.01-4.5,4.5-4.5h19.12v-23.58h-19.12c-2.49,0-4.5-2.02-4.5-4.5v-6.54c0-.32-.03-.54-.05-.68-.14-.03-.36-.05-.68-.05s-.54.03-.68.05c-.03.14-.05.37-.05.68v6.54c0,2.48-2.02,4.5-4.5,4.5h-18.57v23.58h18.57c2.48,0,4.5,2.01,4.5,4.5v15.84c0,.32.02.54.05.68m19.07-21.87h-13.16c-2.49,0-4.5-2.02-4.5-4.5v-12.88c0-2.49,2.01-4.5,4.5-4.5h13.16c2.48,0,4.5,2.01,4.5,4.5v12.88c0,2.48-2.02,4.5-4.5,4.5m-8.66-9h4.16v-3.88h-4.16v3.88Zm-14.97,9h-11.43c-3.56,0-6.15-2.59-6.15-6.15v-9.57c0-3.57,2.59-6.15,6.15-6.15h11.43c2.48,0,4.5,2.01,4.5,4.5v12.88c0,2.48-2.02,4.5-4.5,4.5m-8.59-9h4.09v-3.88h-4.09v3.88Z"/><path class="cls-7" d="m379.94,69.78c-3.49,0-5.23-1.75-5.23-5.23v-15.84h-18.6c-1.33,0-2.41-.41-3.24-1.24-.83-.83-1.24-1.9-1.24-3.24v-23.62c0-1.33.41-2.41,1.24-3.24.83-.83,1.91-1.24,3.24-1.24h18.6v-6.54c0-3.49,1.74-5.23,5.23-5.23s5.24,1.75,5.24,5.23v6.54h19.15c1.33,0,2.41.41,3.24,1.24.83.83,1.24,1.91,1.24,3.24v23.62c0,1.33-.41,2.41-1.24,3.24-.83.83-1.91,1.24-3.24,1.24h-19.15v15.84c0,3.49-1.75,5.23-5.24,5.23m-16.67-30.93h11.43v-12.88h-11.43c-1.1,0-1.65.55-1.65,1.65v9.57c0,1.1.55,1.65,1.65,1.65m21.9,0h13.16v-12.88h-13.16v12.88Z"/><path class="cls-5" d="m424.75,73.87c-3.59,0-6.64-1.67-8.71-4.87-2.42-3.73-2.12-6.69-1.45-8.53,1.06-2.86,3.7-4.95,7.84-6.19,4.41-1.55,8.42-3.41,11.98-5.55-3.79-5.36-7.21-11.74-10.21-19.07h-1.62c-5.7,0-9.39-3.69-9.39-9.39s3.69-9.39,9.39-9.39h16.78v-.87c0-5.92,3.68-9.6,9.6-9.6s9.6,3.68,9.6,9.6v.87h17.13c5.7,0,9.39,3.69,9.39,9.39s-3.69,9.39-9.39,9.39h-1.59c-2.81,6.95-6.34,13.24-10.54,18.77,3.32,2,7.08,3.75,11.22,5.23,4.53,1.29,7.37,3.48,8.44,6.52.69,1.94.92,5.07-1.87,8.99-1.72,2.45-5.75,6.24-13.27,3.89-7.43-2.48-14.01-5.83-19.65-9.99-5.66,4.03-12.07,7.39-19.12,9.98-.04.01-.08.03-.12.04-1.54.52-3.03.78-4.43.78m-1.46-10.28c.07.14.17.31.3.51,0,0,0,.01.01.02.4.62.71,1.1,2.64.46,7.34-2.71,13.88-6.32,19.43-10.71,1.67-1.32,4.04-1.29,5.68.07,5.37,4.48,11.92,8.03,19.48,10.55,2.29.71,2.77.03,3.16-.52.24-.34.39-.6.5-.8-.37-.22-1.07-.55-2.29-.89-.1-.03-.2-.06-.29-.09-6.79-2.39-12.73-5.48-17.67-9.19-1-.75-1.65-1.89-1.78-3.14-.13-1.25.27-2.49,1.09-3.43,5.53-6.3,9.97-13.98,13.21-22.82.65-1.77,2.34-2.96,4.23-2.96h4.68c.15,0,.28,0,.37-.02,0-.1.02-.22.02-.37s0-.27-.02-.38c-.1,0-.22-.01-.37-.01h-21.63c-2.48,0-4.5-2.02-4.5-4.5v-5.37c0-.25-.01-.43-.03-.56-.26-.04-.86-.04-1.12,0-.02.13-.04.31-.04.56v5.37c0,2.48-2.02,4.5-4.5,4.5h-21.28c-.15,0-.28,0-.37.01,0,.1-.02.22-.02.38s0,.27.02.37c.1.01.22.02.37.02h4.68c1.87,0,3.54,1.15,4.2,2.9,3.66,9.59,8,17.47,12.9,23.4.79.96,1.15,2.19,1,3.42-.15,1.23-.81,2.34-1.8,3.07-5.16,3.78-11.3,6.94-18.26,9.37-.07.03-.14.05-.21.07-.91.27-1.46.52-1.79.71m25.8-16.71c-1.27,0-2.49-.54-3.34-1.49-4.88-5.42-8.75-11.67-11.51-18.56-.55-1.39-.38-2.96.45-4.19.84-1.24,2.23-1.98,3.73-1.98h20.8c1.48,0,2.86.72,3.7,1.93.84,1.21,1.03,2.76.52,4.14-2.61,7-6.29,13.25-10.95,18.6-.85.97-2.07,1.53-3.36,1.55h-.04Zm-3.57-17.22c1.06,1.91,2.22,3.74,3.5,5.49,1.2-1.74,2.3-3.57,3.29-5.49h-6.79Z"/><path class="cls-4" d="m419.82,65.99c-2.48-3.81-1.15-6.48,4-7.99,6.57-2.3,12.26-5.21,17.08-8.75-5.24-6.34-9.78-14.56-13.64-24.66h-4.68c-3.26,0-4.89-1.63-4.89-4.89s1.63-4.89,4.89-4.89h21.28v-5.37c0-3.4,1.7-5.1,5.1-5.1s5.1,1.7,5.1,5.1v5.37h21.63c3.26,0,4.89,1.63,4.89,4.89s-1.63,4.89-4.89,4.89h-4.68c-3.44,9.41-8.13,17.5-14.05,24.24,4.59,3.44,10.08,6.29,16.46,8.54,5.79,1.61,7.21,4.48,4.27,8.61-1.84,2.62-4.59,3.35-8.26,2.2-8.13-2.71-15.11-6.5-20.94-11.37-5.97,4.73-12.88,8.54-20.73,11.43-3.54,1.19-6.18.44-7.92-2.27m29.27-24.18c4.32-4.96,7.69-10.7,10.12-17.22h-20.8c2.57,6.43,6.13,12.17,10.68,17.22"/><path class="cls-1" d="m284.54,68.81c-2.53,0-3.79-1.26-3.79-3.79s1.26-3.79,3.79-3.79h22.45v-2.13h-17.7c-2.3,0-3.44-1.17-3.44-3.51s1.15-3.44,3.44-3.44h17.7v-2h-14.74c-1.33,0-2.41-.41-3.24-1.24-.83-.83-1.24-1.91-1.24-3.24v-12.12c0-1.33.41-2.41,1.24-3.24.83-.83,1.91-1.24,3.24-1.24h39.88c1.33,0,2.41.41,3.24,1.24s1.24,1.91,1.24,3.24v12.12c0,1.33-.41,2.41-1.24,3.24-.83.83-1.91,1.24-3.24,1.24h-15.43v2h18.18c2.3,0,3.44,1.15,3.44,3.44s-1.15,3.51-3.44,3.51h-18.18v2.13h22.87c2.53,0,3.79,1.26,3.79,3.79s-1.26,3.79-3.79,3.79h-55.03Zm.48-41.6c-2.57,0-3.86-1.31-3.86-3.93s1.28-3.86,3.86-3.86h10.12c-.28-1.19-.67-2.3-1.17-3.31-.05-.09,0-.18.14-.27h.21-5.1c-2.57,0-3.86-1.29-3.86-3.86s1.29-3.86,3.86-3.86h17.36v-.14c0-1.01.6-1.84,1.79-2.48,1.06-.55,2.2-.83,3.44-.83s2.43.28,3.44.83c1.19.64,1.79,1.47,1.79,2.48v.14h18.18c2.57,0,3.86,1.29,3.86,3.86s-1.29,3.86-3.86,3.86h-4.41c-.51,1.01-1.08,2.2-1.72,3.58h9.85c2.57,0,3.86,1.29,3.86,3.86s-1.29,3.93-3.86,3.93h-53.93Zm11.98,9.71h9.99v-2.13h-8.33c-1.1,0-1.65.55-1.65,1.65v.48Zm.83,7.51h9.16v-2.14h-9.99v1.31c0,.55.28.83.83.83m7.85-25h12.95c.04-.14.14-.37.27-.69.46-1.29.76-2.25.9-2.89h-15.43c.6,1.24,1.03,2.43,1.31,3.58m11.02,17.49h10.19v-1.31c0-.55-.27-.83-.83-.83h-9.37v2.13Zm0,7.51h8.54c1.1,0,1.65-.55,1.65-1.65v-.48h-10.19v2.14Z"/><path class="cls-5" d="m339.58,73.31h-55.03c-5.04,0-8.29-3.25-8.29-8.29,0-3.92,1.97-6.76,5.23-7.83-.08-.51-.13-1.05-.13-1.61,0-2.63.98-4.79,2.66-6.19-.49-1.13-.74-2.39-.74-3.73v-12.12c0-.67.06-1.32.19-1.95-4.18-.61-6.8-3.74-6.8-8.32,0-3.78,1.82-6.56,4.84-7.74-.41-1.05-.63-2.24-.63-3.56,0-5.08,3.28-8.36,8.36-8.36h14.44c.67-.81,1.53-1.52,2.58-2.08,1.75-.92,3.61-1.36,5.58-1.36s3.92.46,5.6,1.38c1.03.56,1.89,1.26,2.56,2.07h15.26c5.08,0,8.36,3.28,8.36,8.36,0,1.39-.25,2.64-.71,3.73,2.77,1.26,4.42,3.96,4.42,7.56,0,4.43-2.45,7.5-6.4,8.25.13.65.2,1.32.2,2.01v12.12c0,1.39-.27,2.69-.79,3.86,1.59,1.4,2.51,3.5,2.51,6.06,0,.57-.04,1.11-.13,1.63,3.21,1.08,5.16,3.91,5.16,7.81,0,5.03-3.25,8.29-8.29,8.29m-29.29-9h3.14c-.75-.81-1.22-1.89-1.22-3.08v-2.14c0-1.4.64-2.65,1.64-3.48-1-.82-1.64-2.08-1.64-3.48v-2c0-1.08.38-2.08,1.02-2.86-.64-.78-1.02-1.77-1.02-2.86v-2.13c0-1.01.33-1.94.89-2.69-.56-.75-.89-1.68-.89-2.69v-2.14c0-.42.06-.83.17-1.22h-1.04c.11.39.17.79.17,1.22v2.14c0,1.01-.33,1.94-.89,2.69.56.75.89,1.68.89,2.69v2.13c0,1.09-.38,2.08-1.02,2.86.64.78,1.02,1.77,1.02,2.86v2c0,1.4-.64,2.65-1.64,3.48,1,.83,1.64,2.08,1.64,3.48v2.14c0,1.19-.46,2.27-1.22,3.08m20.48-18.67h1.35v-12.08h-1.09c.24.62.38,1.31.38,2.04v1.31c0,1.01-.33,1.94-.89,2.69.56.75.89,1.68.89,2.69v.48c0,1.06-.23,2.03-.64,2.87m-38.48,0h.61c-.24-.62-.38-1.31-.38-2.04v-1.31c0-1.01.33-1.94.89-2.69-.56-.75-.89-1.68-.89-2.69v-.48c0-1.06.23-2.03.64-2.87h-.87v12.08Zm29.46-22.94h4.29c-.27-.26-.51-.55-.72-.87-.83-1.3-.93-2.93-.28-4.32.66-1.42,1.25-2.65,1.78-3.69.23-.45.52-.86.87-1.2h-4.72c.12.12.24.25.35.38.85,1.06,1.19,2.44.9,3.77-.18.85-.52,1.95-1.06,3.46-.03.09-.07.18-.11.27-.07.15-.12.27-.15.36-.24.72-.64,1.34-1.16,1.83m-23.51,0h4.38c-.63-.59-1.09-1.35-1.3-2.24-.2-.83-.53-1.73-.99-2.68-.67-1.4-.58-3.04.25-4.35.19-.3.41-.58.66-.82h-3.76c.83.82,1.35,1.95,1.35,3.21,0,.05,0,.11,0,.16.28.77.52,1.58.71,2.41.31,1.34,0,2.74-.86,3.81-.14.17-.28.33-.44.48m11.51-11.37h4.17c-.57-.55-.99-1.26-1.2-2.04-.51-.15-1.22-.16-1.78.01-.21.78-.63,1.48-1.19,2.03"/><path class="cls-1" d="m284.54,68.81c-2.53,0-3.79-1.26-3.79-3.79s1.26-3.79,3.79-3.79h22.45v-2.13h-17.7c-2.3,0-3.44-1.17-3.44-3.51s1.15-3.44,3.44-3.44h17.7v-2h-14.74c-1.33,0-2.41-.41-3.24-1.24-.83-.83-1.24-1.91-1.24-3.24v-12.12c0-1.33.41-2.41,1.24-3.24.83-.83,1.91-1.24,3.24-1.24h39.88c1.33,0,2.41.41,3.24,1.24s1.24,1.91,1.24,3.24v12.12c0,1.33-.41,2.41-1.24,3.24-.83.83-1.91,1.24-3.24,1.24h-15.43v2h18.18c2.3,0,3.44,1.15,3.44,3.44s-1.15,3.51-3.44,3.51h-18.18v2.13h22.87c2.53,0,3.79,1.26,3.79,3.79s-1.26,3.79-3.79,3.79h-55.03Zm.48-41.6c-2.57,0-3.86-1.31-3.86-3.93s1.28-3.86,3.86-3.86h10.12c-.28-1.19-.67-2.3-1.17-3.31-.05-.09,0-.18.14-.27h.21-5.1c-2.57,0-3.86-1.29-3.86-3.86s1.29-3.86,3.86-3.86h17.36v-.14c0-1.01.6-1.84,1.79-2.48,1.06-.55,2.2-.83,3.44-.83s2.43.28,3.44.83c1.19.64,1.79,1.47,1.79,2.48v.14h18.18c2.57,0,3.86,1.29,3.86,3.86s-1.29,3.86-3.86,3.86h-4.41c-.51,1.01-1.08,2.2-1.72,3.58h9.85c2.57,0,3.86,1.29,3.86,3.86s-1.29,3.93-3.86,3.93h-53.93Zm11.98,9.71h9.99v-2.13h-8.33c-1.1,0-1.65.55-1.65,1.65v.48Zm.83,7.51h9.16v-2.14h-9.99v1.31c0,.55.28.83.83.83m7.85-25h12.95c.04-.14.14-.37.27-.69.46-1.29.76-2.25.9-2.89h-15.43c.6,1.24,1.03,2.43,1.31,3.58m11.02,17.49h10.19v-1.31c0-.55-.27-.83-.83-.83h-9.37v2.13Zm0,7.51h8.54c1.1,0,1.65-.55,1.65-1.65v-.48h-10.19v2.14Z"/><path class="cls-1" d="m214.33,66.5c-2.62-2.99-1.82-6.11,2.41-9.37,3.49-3.58,5.93-8.02,7.3-13.3,1.01-3.86,1.52-8.64,1.52-14.34V12.54c0-3.31,1.65-4.96,4.96-4.96s4.96,1.65,4.96,4.96v17.02c0,7.77-.71,14.22-2.14,19.37-2.02,7.03-5.56,12.8-10.61,17.3-3.49,2.67-6.3,2.76-8.41.28m45.28,2.62c-3.86,0-6.5-.99-7.92-2.96-1.43-1.98-2.14-5.61-2.14-10.89V12.6c0-3.35,1.7-5.03,5.1-5.03s5.03,1.68,5.03,5.03v42.73c0,1.88.09,3.06.28,3.52.18.46.64.69,1.38.69h3.72c.78,0,1.33-.73,1.65-2.21.18-2.85.73-5.05,1.65-6.62,1.15-1.88,2.69-2.37,4.62-1.45,1.19.6,2.02,1.88,2.48,3.86.37,1.56.46,3.26.28,5.1-.64,3.86-1.7,6.64-3.17,8.34-1.47,1.7-3.63,2.55-6.48,2.55h-6.48Z"/><path class="cls-5" d="m266.09,73.62h-6.48c-5.37,0-9.27-1.63-11.58-4.83-2.04-2.82-2.99-7.12-2.99-13.52V12.6c0-5.88,3.68-9.53,9.6-9.53s9.53,3.65,9.53,9.53v36.38c.1-.19.2-.37.31-.55,2.19-3.59,5.15-4.12,6.72-4.12,1.22,0,2.47.3,3.71.89,2.52,1.26,4.15,3.57,4.93,6.9.48,2.03.6,4.24.37,6.57,0,.1-.02.2-.04.3-.79,4.73-2.17,8.18-4.21,10.54-1.62,1.88-4.65,4.11-9.88,4.11Zm-12.01-61.51c-.02.12-.03.28-.03.5v42.66c0,6.16,1.07,7.96,1.29,8.26.5.69,2.09,1.1,4.28,1.1h6.48c2.21,0,2.86-.75,3.08-1,.51-.58,1.45-2.14,2.11-5.98.04-.47.06-.93.05-1.37-.05.41-.1.86-.13,1.36-.01.23-.05.45-.1.67-1.17,5.33-4.93,5.74-6.05,5.74h-3.72c-2.6,0-4.68-1.32-5.56-3.53-.43-1.07-.59-2.48-.59-5.18V12.6c0-.22-.01-.38-.03-.5-.26-.03-.83-.03-1.07,0Zm-36.21,60.69c-1.87,0-4.59-.59-6.96-3.38-2.4-2.74-2.71-5.46-2.54-7.25.29-2.98,2.09-5.8,5.35-8.39,2.86-3.01,4.81-6.64,5.97-11.09.91-3.48,1.37-7.91,1.37-13.2V12.54c0-5.84,3.63-9.46,9.46-9.46s9.46,3.63,9.46,9.46v17.02c0,8.13-.77,15.05-2.3,20.57-2.26,7.87-6.28,14.4-11.96,19.46-.08.08-.17.15-.26.22-2.64,2.01-5.13,2.99-7.6,2.99Zm-.54-9.77s.11.2.38.51c.11.13.19.21.24.25.21-.04.84-.23,1.93-1.04,4.37-3.94,7.37-8.87,9.15-15.06,1.3-4.69,1.96-10.8,1.96-18.12V12.54c0-.18,0-.33-.02-.44-.23-.02-.66-.02-.88,0-.01.11-.02.26-.02.44v16.95c0,6.05-.56,11.26-1.66,15.48-1.57,6.01-4.4,11.16-8.43,15.3-.15.15-.31.29-.48.42-1.79,1.38-2.11,2.19-2.16,2.33Z"/><path class="cls-8" d="m214.33,66.5c-2.62-2.99-1.82-6.11,2.41-9.37,3.49-3.58,5.93-8.02,7.3-13.3,1.01-3.86,1.52-8.64,1.52-14.34V12.54c0-3.31,1.65-4.96,4.96-4.96s4.96,1.65,4.96,4.96v17.02c0,7.77-.71,14.22-2.14,19.37-2.02,7.03-5.56,12.8-10.61,17.3-3.49,2.67-6.3,2.76-8.41.28m45.28,2.62c-3.86,0-6.5-.99-7.92-2.96-1.43-1.98-2.14-5.61-2.14-10.89V12.6c0-3.35,1.7-5.03,5.1-5.03s5.03,1.68,5.03,5.03v42.73c0,1.88.09,3.06.28,3.52.18.46.64.69,1.38.69h3.72c.78,0,1.33-.73,1.65-2.21.18-2.85.73-5.05,1.65-6.62,1.15-1.88,2.69-2.37,4.62-1.45,1.19.6,2.02,1.88,2.48,3.86.37,1.56.46,3.26.28,5.1-.64,3.86-1.7,6.64-3.17,8.34-1.47,1.7-3.63,2.55-6.48,2.55h-6.48Z"/></g></svg>