<?xml version="1.0" encoding="UTF-8"?><svg id="_圖層_2" xmlns="http://www.w3.org/2000/svg" viewBox="0 0 53.97 57.39"><defs><style>.cls-1{fill:#505050;}.cls-1,.cls-2,.cls-3,.cls-4,.cls-5,.cls-6,.cls-7,.cls-8,.cls-9,.cls-10{stroke-width:0px;}.cls-2{fill:#e3e3e3;}.cls-3{fill:rgba(255,255,255,.26);}.cls-4{fill:rgba(255,255,255,.24);}.cls-5{fill:#f29600;}.cls-6{fill:#fcc800;}.cls-7{fill:#fff;}.cls-8{fill:#717071;}.cls-9{fill:#929292;}.cls-10{fill:#e95513;}</style></defs><g id="_圖層_3"><path class="cls-1" d="m26.99,55.47C12.4,55.47.53,43.91.02,29.45c0,.32-.02.64-.02.96,0,14.91,12.08,26.99,26.99,26.99s26.99-12.08,26.99-26.99c0-.32-.01-.64-.03-.96-.51,14.46-12.38,26.03-26.96,26.03Z"/><path class="cls-9" d="m53.95,27.74c-.4,14.55-12.31,26.24-26.97,26.24S.42,42.29.02,27.74c0,.25-.02.5-.02.75,0,.32.01.64.02.96.51,14.46,12.38,26.03,26.96,26.03s26.46-11.57,26.96-26.03c.01-.32.03-.64.03-.96,0-.25-.01-.5-.02-.75Z"/><path class="cls-7" d="m26.99,53.98c14.65,0,26.57-11.68,26.97-26.24,0-.25.02-.5.02-.75C53.97,12.09,41.89,0,26.99,0S0,12.09,0,26.99c0,.25.01.5.02.75.4,14.55,12.31,26.24,26.97,26.24Z"/><path class="cls-2" d="m48.71,23.76c.65-.67,1.64-.89,2.51-.55.87.34,1.46,1.16,1.48,2.1.17,4.04,0,7.74-1.82,12-3.95,9.21-14.74,15.85-23.85,15.55-10.23-.33-18.38-5.08-21.5-12.09-.33-.77-.23-1.66.29-2.32.51-.66,1.35-.99,2.18-.86,10.19,1.52,26.37,1.06,40.72-13.82Z"/><path class="cls-10" d="m26.99,2.64c12.84,0,23.25,10.41,23.25,23.25s-10.41,23.25-23.25,23.25S3.74,38.72,3.74,25.89,14.15,2.64,26.99,2.64Z"/><path class="cls-5" d="m26.99,4.24c11.17,0,20.22,9.05,20.22,20.22s-9.05,20.22-20.22,20.22S6.77,35.62,6.77,24.46,15.82,4.24,26.99,4.24Z"/><path class="cls-4" d="m8.12,31.58c-.84-2.22-1.3-4.62-1.3-7.13C6.82,13.3,15.88,4.24,27.04,4.24s19.39,8.25,20.17,18.7c-2.89-7.64-10.28-13.09-18.93-13.09-11.16,0-20.22,9.06-20.22,20.22,0,.51.02,1.02.06,1.52Z"/><path class="cls-3" d="m14.56,11.77c1.71-1.06,3.79-.81,4.64.56.85,1.37.15,3.34-1.56,4.41-1.71,1.06-3.79.81-4.64-.56-.85-1.37-.15-3.34,1.56-4.4Z"/><path class="cls-3" d="m39.85,31.85c.93-1.35,2.57-1.84,3.65-1.09,1.08.75,1.2,2.45.26,3.8-.94,1.35-2.57,1.84-3.65,1.08-1.08-.75-1.2-2.45-.26-3.8Z"/><path class="cls-3" d="m11.02,12.98c.87-.54,1.93-.41,2.36.29.43.7.07,1.7-.8,2.24-.87.54-1.93.41-2.36-.29-.43-.7-.08-1.7.79-2.24Z"/><path class="cls-6" d="m24.66,33.22c5.88,1.51,10.09,4.86,9.42,7.48-.67,2.62-5.99,3.52-11.86,2-5.88-1.51-10.1-4.86-9.42-7.48.67-2.62,5.98-3.52,11.86-2.01Z"/><path class="cls-8" d="m28.09,35.73c-.74,1-1.89,1.62-3.14,1.69-1.25.06-2.46-.44-3.29-1.37l-7.48-8.31c-1.19-1.32-1.09-3.36.23-4.55,1.32-1.19,3.36-1.08,4.55.24l5.3,5.88c.08.09.2.13.31.13.12,0,.23-.07.3-.16l10.89-14.77c1.05-1.43,3.07-1.74,4.5-.68,1.43,1.06,1.73,3.07.68,4.5l-12.83,17.4Z"/><path class="cls-7" d="m27.6,35.24c-.74,1-1.9,1.62-3.14,1.68-1.25.06-2.45-.44-3.29-1.37l-7.49-8.31c-1.19-1.32-1.09-3.36.24-4.55,1.32-1.19,3.35-1.08,4.54.24l5.3,5.88c.08.09.2.13.31.13.12,0,.22-.07.3-.16l10.89-14.77c1.05-1.43,3.07-1.73,4.5-.68,1.43,1.06,1.73,3.07.68,4.5l-12.84,17.41Z"/></g></svg>