<?xml version="1.0" encoding="UTF-8"?><svg id="_圖層_2" xmlns="http://www.w3.org/2000/svg" viewBox="0 0 121.82 130.65"><defs><style>.cls-1{fill:#533b33;}.cls-1,.cls-2{stroke-width:0px;}.cls-2{fill:#de5419;}</style></defs><g id="_圖層_1-2"><circle class="cls-2" cx="60.91" cy="83.15" r="45"/><path class="cls-1" d="m60.91,35.65c-26.19,0-47.5,21.31-47.5,47.5s21.31,47.5,47.5,47.5,47.5-21.31,47.5-47.5-21.31-47.5-47.5-47.5Zm1.5,89.96v-5.46c0-.83-.67-1.5-1.5-1.5s-1.5.67-1.5,1.5v5.46c-22.24-.78-40.19-18.72-40.96-40.96h5.46c.83,0,1.5-.67,1.5-1.5s-.67-1.5-1.5-1.5h-5.46c.78-22.24,18.72-40.18,40.96-40.96v5.46c0,.83.67,1.5,1.5,1.5s1.5-.67,1.5-1.5v-5.46c22.24.78,40.19,18.72,40.96,40.96h-5.46c-.83,0-1.5.67-1.5,1.5s.67,1.5,1.5,1.5h5.46c-.78,22.24-18.72,40.18-40.96,40.96Z"/><path class="cls-1" d="m114.32,0c-2.22,0-4.21.97-5.58,2.5H0v10h7.74c.04.8.69,1.43,1.49,1.43.46,0,46.26.26,46.26,21.79,0,.83.67,1.5,1.5,1.5.65,0,1.21-.42,1.41-1.01v3.83h5v-3.97c.16.65.75,1.14,1.45,1.14.83,0,1.5-.67,1.5-1.5,0-18.88,35.22-21.41,44.2-21.74,1.11.64,2.39,1.02,3.76,1.02,4.14,0,7.5-3.36,7.5-7.5s-3.36-7.5-7.5-7.5Zm-55.91,34.01c-1.29-13.65-17.95-19.23-31.55-21.51h31.55v21.51Zm5,.42V12.5h31.59c-13.73,2.3-30.6,7.97-31.59,21.93Z"/></g></svg>