<?xml version="1.0" encoding="UTF-8"?><svg xmlns="http://www.w3.org/2000/svg" viewBox="0 0 108.13 114.98"><defs><style>.cls-1{fill:#e4e4e4;}.cls-1,.cls-2,.cls-3,.cls-4,.cls-5,.cls-6,.cls-7,.cls-8,.cls-9{stroke-width:0px;}.cls-2{fill:#b4a79f;}.cls-10{isolation:isolate;}.cls-3{fill:rgba(255,255,255,.26);}.cls-4{fill:rgba(255,255,255,.24);}.cls-5{fill:#92827a;}.cls-6{fill:#515050;}.cls-7{fill:#fff;}.cls-11{mix-blend-mode:multiply;opacity:.25;}.cls-12{mix-blend-mode:luminosity;}.cls-8{fill:#949394;}.cls-9{fill:#c0b5af;}</style></defs><g class="cls-10"><g id="_圖層_2"><g id="_圖層_1-2"><g class="cls-12"><path class="cls-6" d="m54.07,111.13C24.85,111.13,1.06,87.96.05,58.99c-.02.64-.05,1.28-.05,1.92,0,29.86,24.21,54.07,54.07,54.07s54.07-24.21,54.07-54.07c0-.64-.03-1.28-.05-1.92-1.01,28.97-24.8,52.14-54.02,52.14Z"/><path class="cls-8" d="m108.09,55.57c-.8,29.16-24.67,52.56-54.03,52.56S.84,84.73.04,55.57c-.01.5-.04,1-.04,1.5,0,.64.03,1.28.05,1.92,1.01,28.97,24.8,52.14,54.02,52.14s53-23.18,54.02-52.14c.02-.64.05-1.28.05-1.92,0-.5-.03-1-.04-1.5Z"/><path class="cls-7" d="m54.07,108.13c29.36,0,53.23-23.4,54.03-52.56.01-.5.04-1,.04-1.5C108.13,24.2,83.92,0,54.07,0S0,24.2,0,54.07c0,.5.02,1,.04,1.5.8,29.16,24.67,52.56,54.03,52.56Z"/><path class="cls-1" d="m97.58,47.59c1.3-1.34,3.28-1.78,5.02-1.1,1.74.68,2.91,2.33,2.96,4.2.35,8.09,0,15.51-3.64,24.03-7.92,18.46-29.53,31.74-47.79,31.15-20.49-.67-36.81-10.17-43.07-24.21-.68-1.54-.46-3.33.58-4.66,1.03-1.33,2.7-1.99,4.36-1.73,20.42,3.04,52.81,2.12,81.58-27.68Z"/><path class="cls-5" d="m54.07,5.29c25.72,0,46.57,20.85,46.57,46.57s-20.85,46.57-46.57,46.57S7.49,77.58,7.49,51.86,28.34,5.29,54.07,5.29Z"/><circle class="cls-9" cx="54.07" cy="49" r="40.51" transform="translate(-18.81 52.58) rotate(-45)"/><path class="cls-4" d="m16.26,63.27c-1.68-4.44-2.59-9.25-2.59-14.28,0-22.36,18.15-40.51,40.51-40.51s38.84,16.53,40.4,37.47c-5.78-15.32-20.58-26.23-37.92-26.23-22.36,0-40.51,18.15-40.51,40.51,0,1.02.04,2.04.11,3.04Z"/><path class="cls-3" d="m29.17,23.57c3.43-2.12,7.59-1.62,9.29,1.13,1.7,2.75.3,6.7-3.13,8.82-3.43,2.12-7.59,1.62-9.29-1.13-1.7-2.75-.3-6.7,3.13-8.82Z"/><path class="cls-3" d="m79.83,63.8c1.87-2.7,5.15-3.68,7.32-2.18,2.17,1.5,2.4,4.91.53,7.61-1.87,2.7-5.15,3.68-7.32,2.18-2.17-1.5-2.41-4.91-.53-7.61Z"/><path class="cls-3" d="m22.08,26.01c1.75-1.08,3.86-.82,4.73.58.87,1.4.15,3.41-1.59,4.49s-3.86.82-4.73-.58c-.87-1.4-.15-3.41,1.59-4.49Z"/><path class="cls-2" d="m49.4,66.55c11.78,3.03,20.23,9.74,18.88,14.99-1.35,5.25-11.99,7.05-23.77,4.01-11.78-3.03-20.23-9.74-18.88-14.99,1.35-5.25,11.99-7.05,23.77-4.02Z"/></g><g class="cls-11"><path class="cls-8" d="m108.09,55.57c-.8,29.16-24.67,52.56-54.03,52.56S.84,84.73.04,55.57c-.01.5-.04,1-.04,1.5,0,.64.03,1.28.05,1.92,1.01,28.97,24.8,52.14,54.02,52.14s53-23.18,54.02-52.14c.02-.64.05-1.28.05-1.92,0-.5-.03-1-.04-1.5Z"/><path class="cls-7" d="m54.07,108.13c29.36,0,53.23-23.4,54.03-52.56.01-.5.04-1,.04-1.5C108.13,24.2,83.92,0,54.07,0S0,24.2,0,54.07c0,.5.02,1,.04,1.5.8,29.16,24.67,52.56,54.03,52.56Z"/><path class="cls-1" d="m97.58,47.59c1.3-1.34,3.28-1.78,5.02-1.1,1.74.68,2.91,2.33,2.96,4.2.35,8.09,0,15.51-3.64,24.03-7.92,18.46-29.53,31.74-47.79,31.15-20.49-.67-36.81-10.17-43.07-24.21-.68-1.54-.46-3.33.58-4.66,1.03-1.33,2.7-1.99,4.36-1.73,20.42,3.04,52.81,2.12,81.58-27.68Z"/><path class="cls-5" d="m54.07,5.29c25.72,0,46.57,20.85,46.57,46.57s-20.85,46.57-46.57,46.57S7.49,77.58,7.49,51.86,28.34,5.29,54.07,5.29Z"/><circle class="cls-9" cx="54.07" cy="49" r="40.51" transform="translate(-18.81 52.58) rotate(-45)"/><path class="cls-4" d="m16.26,63.27c-1.68-4.44-2.59-9.25-2.59-14.28,0-22.36,18.15-40.51,40.51-40.51s38.84,16.53,40.4,37.47c-5.78-15.32-20.58-26.23-37.92-26.23-22.36,0-40.51,18.15-40.51,40.51,0,1.02.04,2.04.11,3.04Z"/><path class="cls-3" d="m29.17,23.57c3.43-2.12,7.59-1.62,9.29,1.13,1.7,2.75.3,6.7-3.13,8.82-3.43,2.12-7.59,1.62-9.29-1.13-1.7-2.75-.3-6.7,3.13-8.82Z"/><path class="cls-3" d="m79.83,63.8c1.87-2.7,5.15-3.68,7.32-2.18,2.17,1.5,2.4,4.91.53,7.61-1.87,2.7-5.15,3.68-7.32,2.18-2.17-1.5-2.41-4.91-.53-7.61Z"/><path class="cls-3" d="m22.08,26.01c1.75-1.08,3.86-.82,4.73.58.87,1.4.15,3.41-1.59,4.49s-3.86.82-4.73-.58c-.87-1.4-.15-3.41,1.59-4.49Z"/><path class="cls-2" d="m49.4,66.55c11.78,3.03,20.23,9.74,18.88,14.99-1.35,5.25-11.99,7.05-23.77,4.01-11.78-3.03-20.23-9.74-18.88-14.99,1.35-5.25,11.99-7.05,23.77-4.02Z"/></g></g></g></g></svg>