<?xml version="1.0" encoding="utf-8"?>
<!-- Generator: Adobe Illustrator 27.4.0, SVG Export Plug-In . SVG Version: 6.00 Build 0)  -->
<svg version="1.1" id="圖層_1" xmlns="http://www.w3.org/2000/svg" xmlns:xlink="http://www.w3.org/1999/xlink" x="0px" y="0px"
	 viewBox="0 0 100 80" style="enable-background:new 0 0 100 80;" xml:space="preserve">
<style type="text/css">
	.st0{fill:#FFFFFF;}
</style>
<path id="Path_171" class="st0" d="M40,0h50c5.5,0,10,4.5,10,10v35c0,5.5-4.5,10-10,10H40c-5.5,0-10-4.5-10-10V10
	C30,4.5,34.5,0,40,0z M74.4,16.7c-1.2-1.7-3.5-2.2-5.2-1c-0.4,0.3-0.8,0.6-1,1l-8.8,13.1l-2.7-3.4c-1.3-1.6-3.6-1.9-5.3-0.6
	c-0.2,0.2-0.4,0.4-0.6,0.6l-10,12.5c-1.3,1.6-1,4,0.6,5.3c0.7,0.5,1.5,0.8,2.3,0.8h42.5c2.1,0,3.8-1.7,3.8-3.7
	c0-0.7-0.2-1.5-0.6-2.1L74.4,16.7z M52.5,15c0-2.8-2.2-5-5-5s-5,2.2-5,5s2.2,5,5,5C50.3,20,52.5,17.8,52.5,15
	C52.5,15,52.5,15,52.5,15z M10,20h15v45c0,2.8,2.2,5,5,5h20c2.8,0,5-2.2,5-5v-5h25v10c0,5.5-4.5,10-10,10H10C4.5,80,0,75.5,0,70V30
	C0,24.5,4.5,20,10,20z M11.2,30c-1.4,0-2.5,1.1-2.5,2.5V35c0,1.4,1.1,2.5,2.5,2.5h2.5c1.4,0,2.5-1.1,2.5-2.5v-2.5
	c0-1.4-1.1-2.5-2.5-2.5H11.2z M11.2,46.2c-1.4,0-2.5,1.1-2.5,2.5v2.5c0,1.4,1.1,2.5,2.5,2.5h2.5c1.4,0,2.5-1.1,2.5-2.5v-2.5
	c0-1.4-1.1-2.5-2.5-2.5H11.2z M11.2,62.5c-1.4,0-2.5,1.1-2.5,2.5v2.5c0,1.4,1.1,2.5,2.5,2.5h2.5c1.4,0,2.5-1.1,2.5-2.5V65
	c0-1.4-1.1-2.5-2.5-2.5H11.2z M63.8,65v2.5c0,1.4,1.1,2.5,2.5,2.5h2.5c1.4,0,2.5-1.1,2.5-2.5V65c0-1.4-1.1-2.5-2.5-2.5h-2.5
	C64.9,62.5,63.8,63.6,63.8,65z"/>
<text transform="matrix(1 0 0 1 -4 101.2075)" style="font-family:'MingLiU'; font-size:9px;">https://fontawesome.com/</text>
</svg>
